<?xml version="1.0" encoding="UTF-8" standalone="no"?>
<!DOCTYPE svg PUBLIC "-//W3C//DTD SVG 1.1//EN" "http://www.w3.org/Graphics/SVG/1.1/DTD/svg11.dtd">
<!-- Created with Vectornator (http://vectornator.io/) -->
<svg height="600.0pt" stroke-miterlimit="10" style="fill-rule:nonzero;clip-rule:evenodd;stroke-linecap:round;stroke-linejoin:round;" version="1.1" viewBox="0 0 800 600" width="800.0pt" xml:space="preserve" xmlns="http://www.w3.org/2000/svg" xmlns:xlink="http://www.w3.org/1999/xlink">
<defs/>
<path d="M0 0L800 0L800 600L0 600L0 0Z" fill="#5d2192" fill-rule="nonzero" opacity="1" stroke="none"/>
<g id="BACE" visibility="hidden">
<g opacity="1">
<g opacity="0.899994">
<clipPath clip-rule="nonzero" id="ClipPath">
<path d="M92.336 220.966L95.902 220.966L95.902 217.205L92.336 217.205L92.336 220.966Z"/>
</clipPath>
<g clip-path="url(#ClipPath)">
<path d="M94.938 220.329C94.302 221.031 93.319 221.175 92.741 220.652C92.163 220.128 92.21 219.135 92.845 218.434C93.265 217.971 94.521 217.499 95.327 217.233C95.68 217.116 95.97 217.378 95.888 217.741C95.702 218.569 95.357 219.866 94.938 220.329" fill="#30b3ff" fill-rule="nonzero" opacity="1" stroke="none"/>
</g>
</g>
<g opacity="0.899994">
<clipPath clip-rule="nonzero" id="ClipPath_2">
<path d="M109.263 219.347L112.829 219.347L112.829 215.585L109.263 215.585L109.263 219.347Z"/>
</clipPath>
<g clip-path="url(#ClipPath_2)">
<path d="M111.864 218.709C111.228 219.411 110.245 219.555 109.667 219.032C109.089 218.508 109.136 217.515 109.771 216.814C110.191 216.351 111.447 215.879 112.253 215.613C112.606 215.496 112.896 215.758 112.814 216.121C112.628 216.949 112.283 218.246 111.864 218.709" fill="#30b3ff" fill-rule="nonzero" opacity="1" stroke="none"/>
</g>
</g>
<g opacity="0.899994">
<clipPath clip-rule="nonzero" id="ClipPath_3">
<path d="M102.064 224.011L104.522 224.011L104.522 221.418L102.064 221.418L102.064 224.011Z"/>
</clipPath>
<g clip-path="url(#ClipPath_3)">
<path d="M103.858 223.571C103.42 224.055 102.742 224.154 102.344 223.794C101.945 223.433 101.978 222.748 102.416 222.265C102.705 221.945 103.571 221.621 104.126 221.437C104.369 221.356 104.569 221.537 104.513 221.787C104.385 222.358 104.147 223.252 103.858 223.571" fill="#30b3ff" fill-rule="nonzero" opacity="1" stroke="none"/>
</g>
</g>
<g opacity="0.899994">
<clipPath clip-rule="nonzero" id="ClipPath_4">
<path d="M100.399 219.131L103.458 219.131L103.458 215.904L100.399 215.904L100.399 219.131Z"/>
</clipPath>
<g clip-path="url(#ClipPath_4)">
<path d="M102.631 218.584C102.086 219.186 101.242 219.31 100.746 218.861C100.25 218.412 100.291 217.56 100.836 216.958C101.196 216.561 102.273 216.157 102.965 215.928C103.267 215.828 103.516 216.053 103.446 216.364C103.287 217.074 102.991 218.187 102.631 218.584" fill="#30b3ff" fill-rule="nonzero" opacity="1" stroke="none"/>
</g>
</g>
</g>
<path d="M103.308 184.402C98.3389 184.402 94.3807 188.289 93.5896 193.308C89.4823 194.528 86.4333 198.179 86.4333 202.683C86.4334 208.172 91.0807 213.035 96.5689 213.035L115.996 212.621C121.484 212.621 125.933 208.172 125.933 202.683C125.933 197.195 121.484 192.746 115.996 192.746L112.902 192.746C111.901 188.008 108.089 184.402 103.308 184.402Z" fill="#efe9f4" fill-rule="nonzero" opacity="0" stroke="#efe9f4" stroke-linecap="butt" stroke-linejoin="round" stroke-width="0.18516"/>
<path d="M103.308 184.402C98.3389 184.402 94.3807 188.289 93.5896 193.308C89.4823 194.528 86.4333 198.179 86.4333 202.683C86.4334 208.172 90.8826 212.621 96.3708 212.621L115.996 212.621C121.484 212.621 125.933 208.172 125.933 202.683C125.933 197.195 121.484 192.746 115.996 192.746L112.902 192.746C111.901 188.008 108.089 184.402 103.308 184.402Z" fill="#efe9f4" fill-rule="nonzero" opacity="0" stroke="#efe9f4" stroke-linecap="butt" stroke-linejoin="round" stroke-width="0.18516"/>
<text fill="#efe9f4" font-family="Helvetica" font-size="8" opacity="1" stroke="none" text-anchor="start" transform="matrix(1 0 0 1 98.0134 232.089)" x="0" y="0">
<tspan textLength="13.3398" x="1.5" y="8">rain</tspan>
</text>
</g>
<g id="rain">
<g opacity="1">
<path d="M188.652 227.271C188.016 227.973 187.033 228.117 186.455 227.594C185.877 227.07 185.924 226.077 186.559 225.376C186.979 224.913 188.521 224.319 189.327 224.053C189.68 223.936 189.743 224.069 189.661 224.432C189.475 225.26 189.071 226.808 188.652 227.271" fill="#30b3ff" fill-rule="nonzero" opacity="1" stroke="none"/>
<path d="M205.579 225.652C204.943 226.354 203.96 226.498 203.382 225.975C202.804 225.451 202.851 224.458 203.486 223.757C203.906 223.294 205.417 222.779 206.223 222.513C206.576 222.396 206.648 222.492 206.566 222.855C206.38 223.683 205.998 225.189 205.579 225.652" fill="#30b3ff" fill-rule="nonzero" opacity="1" stroke="none"/>
<path d="M197.572 230.513C197.134 230.997 196.456 231.096 196.058 230.736C195.659 230.375 195.692 229.69 196.13 229.207C196.419 228.887 197.524 228.424 198.079 228.24C198.322 228.159 198.361 228.249 198.305 228.499C198.177 229.07 197.861 230.194 197.572 230.513" fill="#30b3ff" fill-rule="nonzero" opacity="1" stroke="none"/>
<path d="M196.345 225.526C195.8 226.128 194.956 226.252 194.46 225.803C193.964 225.354 194.005 224.502 194.55 223.9C194.91 223.503 196.209 223.082 196.901 222.853C197.203 222.753 197.243 222.842 197.173 223.153C197.014 223.863 196.705 225.129 196.345 225.526" fill="#30b3ff" fill-rule="nonzero" opacity="1" stroke="none"/>
</g>
<path d="M197.527 190.942C192.717 190.942 188.635 194.773 186.933 200.161C182.987 201.61 180.152 205.306 180.152 209.724C180.152 215.394 184.779 219.974 190.496 219.974C191.548 219.974 192.508 219.669 193.464 219.38C194.73 219.997 196.092 220.38 197.527 220.38C199.658 220.38 201.63 219.587 203.339 218.286C205 219.32 206.876 220.067 208.996 220.067C214.886 220.067 219.652 215.44 219.652 209.724C219.652 204.008 214.886 199.349 208.996 199.349C208.608 199.349 208.279 199.528 207.902 199.567C206.088 194.508 202.151 190.942 197.527 190.942Z" fill="#ebebeb" fill-rule="nonzero" opacity="1" stroke="#ebebeb" stroke-linecap="butt" stroke-linejoin="round" stroke-width="0.18516"/>
<text fill="#efe9f4" font-family="Helvetica" font-size="8" opacity="1" stroke="none" text-anchor="start" transform="matrix(1 0 0 1 191.728 239.031)" x="0" y="0">
<tspan textLength="13.3398" x="1.5" y="8">rain</tspan>
</text>
</g>
<g id="showers-night">
<g opacity="1">
<path d="M248.985 230.25C248.349 230.952 247.366 231.096 246.788 230.573C246.21 230.049 246.257 229.056 246.892 228.355C247.312 227.892 248.854 227.298 249.66 227.032C250.013 226.915 250.076 227.048 249.994 227.411C249.808 228.239 249.404 229.787 248.985 230.25" fill="#30b3ff" fill-rule="nonzero" opacity="1" stroke="none"/>
<path d="M265.911 228.631C265.275 229.333 264.292 229.477 263.714 228.954C263.136 228.43 263.183 227.437 263.818 226.736C264.238 226.273 265.75 225.758 266.556 225.492C266.909 225.375 266.98 225.471 266.898 225.834C266.712 226.662 266.33 228.168 265.911 228.631" fill="#30b3ff" fill-rule="nonzero" opacity="1" stroke="none"/>
<path d="M257.904 233.492C257.466 233.976 256.788 234.075 256.39 233.715C255.991 233.354 256.024 232.669 256.462 232.186C256.751 231.866 257.857 231.403 258.412 231.219C258.655 231.138 258.694 231.228 258.638 231.478C258.51 232.049 258.193 233.173 257.904 233.492" fill="#30b3ff" fill-rule="nonzero" opacity="1" stroke="none"/>
<path d="M256.678 228.506C256.133 229.108 255.289 229.232 254.793 228.783C254.297 228.334 254.338 227.482 254.883 226.88C255.243 226.483 256.541 226.062 257.233 225.833C257.535 225.733 257.575 225.821 257.505 226.132C257.346 226.842 257.038 228.109 256.678 228.506" fill="#30b3ff" fill-rule="nonzero" opacity="1" stroke="none"/>
</g>
<path d="M282.184 203.462C280.506 206.546 277.246 208.64 273.491 208.64C268.033 208.64 263.615 204.221 263.615 198.764C263.615 195.008 265.708 191.748 268.793 190.071C268.041 191.469 267.61 193.067 267.61 194.769C267.61 200.226 272.029 204.645 277.486 204.645C279.188 204.645 280.786 204.213 282.184 203.462" fill="#fddd19" fill-rule="nonzero" opacity="1" stroke="none"/>
<text fill="#efe9f4" font-family="Helvetica" font-size="8" opacity="1" stroke="none" text-anchor="start" transform="matrix(1 0 0 1 232.308 239.031)" x="0" y="0">
<tspan textLength="52.0234" x="2.73665" y="8">showers-night </tspan>
</text>
<path d="M257.859 193.922C253.05 193.922 248.968 197.752 247.266 203.14C243.32 204.589 240.484 208.285 240.484 212.703C240.484 218.374 245.112 222.953 250.828 222.953C251.88 222.953 252.84 222.649 253.797 222.359C255.062 222.976 256.425 223.359 257.859 223.359C259.991 223.359 261.962 222.566 263.672 221.265C265.332 222.3 267.208 223.046 269.328 223.047C275.219 223.047 279.984 218.419 279.984 212.703C279.984 206.987 275.219 202.328 269.328 202.328C268.94 202.328 268.612 202.507 268.234 202.547C266.421 197.488 262.483 193.922 257.859 193.922Z" fill="#ebebeb" fill-rule="nonzero" opacity="1" stroke="#ebebeb" stroke-linecap="butt" stroke-linejoin="round" stroke-width="0.18516"/>
</g>
<g id="showers-day">
<g opacity="1">
<path d="M317.154 230.25C316.518 230.952 315.535 231.096 314.957 230.573C314.379 230.049 314.426 229.056 315.061 228.355C315.481 227.892 317.023 227.298 317.829 227.032C318.182 226.915 318.245 227.048 318.163 227.411C317.977 228.239 317.573 229.787 317.154 230.25" fill="#30b3ff" fill-rule="nonzero" opacity="1" stroke="none"/>
<path d="M334.081 228.631C333.445 229.333 332.462 229.477 331.884 228.954C331.306 228.43 331.353 227.437 331.988 226.736C332.408 226.273 333.92 225.758 334.726 225.492C335.079 225.375 335.15 225.471 335.068 225.834C334.882 226.662 334.5 228.168 334.081 228.631" fill="#30b3ff" fill-rule="nonzero" opacity="1" stroke="none"/>
<path d="M326.074 233.492C325.636 233.976 324.958 234.075 324.56 233.715C324.161 233.354 324.194 232.669 324.632 232.186C324.921 231.866 326.027 231.403 326.582 231.219C326.825 231.138 326.863 231.228 326.807 231.478C326.679 232.049 326.363 233.173 326.074 233.492" fill="#30b3ff" fill-rule="nonzero" opacity="1" stroke="none"/>
<path d="M324.847 228.506C324.302 229.108 323.458 229.232 322.962 228.783C322.466 228.334 322.507 227.482 323.052 226.88C323.412 226.483 324.711 226.062 325.403 225.833C325.705 225.733 325.745 225.821 325.675 226.132C325.516 226.842 325.207 228.109 324.847 228.506" fill="#30b3ff" fill-rule="nonzero" opacity="1" stroke="none"/>
</g>
<path d="M349.374 202.465C349.374 207.92 344.952 212.342 339.497 212.342C334.043 212.342 329.621 207.92 329.621 202.465C329.621 197.01 334.043 192.588 339.497 192.588C344.952 192.588 349.374 197.01 349.374 202.465" fill="#fddd19" fill-rule="nonzero" opacity="1" stroke="none"/>
<path d="M326.029 193.922C321.219 193.922 317.137 197.752 315.435 203.14C311.489 204.589 308.654 208.285 308.654 212.703C308.654 218.374 313.281 222.953 318.998 222.953C320.05 222.953 321.01 222.649 321.966 222.359C323.232 222.976 324.595 223.359 326.029 223.359C328.161 223.359 330.132 222.566 331.841 221.265C333.502 222.3 335.378 223.046 337.498 223.047C343.389 223.047 348.154 218.419 348.154 212.703C348.154 206.987 343.389 202.328 337.498 202.328C337.11 202.328 336.781 202.507 336.404 202.547C334.591 197.488 330.653 193.922 326.029 193.922Z" fill="#ebebeb" fill-rule="nonzero" opacity="1" stroke="#ebebeb" stroke-linecap="butt" stroke-linejoin="round" stroke-width="0.18516"/>
<text fill="#efe9f4" font-family="Helvetica" font-size="8" opacity="1" stroke="none" text-anchor="start" transform="matrix(1 0 0 1 300.477 239.031)" x="0" y="0">
<tspan textLength="47.5742" x="3.84993" y="8"> showers-day
</tspan>
</text>
</g>
<g id="cloudy">
<text fill="#efe9f4" font-family="Helvetica" font-size="8" opacity="1" stroke="none" text-anchor="start" transform="matrix(1 0 0 1 377.437 239.521)" x="0" y="0">
<tspan textLength="23.125" x="1.5" y="8">cloudy
</tspan>
</text>
<text fill="#efe9f4" font-family="Helvetica" font-size="8" opacity="1" stroke="none" text-anchor="start" transform="matrix(1 0 0 1 422.258 239.521)" x="0" y="0">
<tspan textLength="37.3516" x="1.5" y="8">clear-night
</tspan>
</text>
<path d="M387.464 196.411C382.654 196.411 378.572 200.242 376.87 205.63C372.924 207.079 370.089 210.775 370.089 215.193C370.089 220.863 374.716 225.443 380.432 225.443C381.484 225.443 382.444 225.138 383.401 224.849C384.667 225.466 386.029 225.849 387.464 225.849C389.595 225.849 391.566 225.056 393.276 223.755C394.936 224.789 396.813 225.536 398.932 225.536C404.823 225.536 409.589 220.909 409.589 215.193C409.589 209.477 404.823 204.818 398.932 204.818C398.544 204.818 398.216 204.997 397.839 205.036C396.025 199.977 392.087 196.411 387.464 196.411Z" fill="#ebebeb" fill-rule="nonzero" opacity="1" stroke="#ebebeb" stroke-linecap="butt" stroke-linejoin="round" stroke-width="0.18516"/>
</g>
<g id="clear-day">
<path d="M510.795 211.249C510.796 219.089 504.551 225.445 496.846 225.445C489.143 225.446 482.898 219.091 482.897 211.251C482.896 203.412 489.141 197.056 496.844 197.056C504.549 197.055 510.795 203.41 510.795 211.249" fill="#fddd19" fill-rule="nonzero" opacity="1" stroke="none"/>
<text fill="#efe9f4" font-family="Helvetica" font-size="8" opacity="1" stroke="none" text-anchor="start" transform="matrix(1 0 0 1 478.333 239.521)" x="0" y="0">
<tspan textLength="32.9023" x="1.5" y="8">clear-day
</tspan>
</text>
</g>
<g id="partly-cloudy-night">
<path d="M577.067 207.77C575.389 210.854 572.129 212.948 568.374 212.948C562.916 212.948 558.498 208.529 558.498 203.072C558.498 199.316 560.591 196.056 563.676 194.379C562.924 195.777 562.493 197.375 562.493 199.077C562.493 204.534 566.912 208.953 572.369 208.953C574.071 208.953 575.669 208.521 577.067 207.77" fill="#fddd19" fill-rule="nonzero" opacity="1" stroke="none"/>
<text fill="#efe9f4" font-family="Helvetica" font-size="8" opacity="1" stroke="none" text-anchor="start" transform="matrix(1 0 0 1 528.057 234.699)" x="0" y="0">
<tspan textLength="22.2266" x="12.6947" y="8">partly-</tspan>
<tspan textLength="43.1367" x="2.23964" y="18">cloudy-night</tspan>
</text>
<path d="M552.742 198.23C547.933 198.23 543.851 202.06 542.148 207.448C538.203 208.897 535.367 212.593 535.367 217.011C535.367 222.682 539.995 227.261 545.711 227.261C546.763 227.261 547.723 226.956 548.68 226.667C549.945 227.284 551.308 227.667 552.742 227.667C554.874 227.667 556.845 226.874 558.555 225.573C560.215 226.608 562.091 227.354 564.211 227.355C570.102 227.355 574.867 222.727 574.867 217.011C574.867 211.295 570.102 206.636 564.211 206.636C563.823 206.636 563.494 206.815 563.117 206.855C561.304 201.795 557.366 198.23 552.742 198.23Z" fill="#ebebeb" fill-rule="nonzero" opacity="1" stroke="#ebebeb" stroke-linecap="butt" stroke-linejoin="round" stroke-width="0.18516"/>
</g>
<g id="partly-cloudy-day">
<path d="M634.437 207.116C634.437 212.589 629.984 217.026 624.49 217.026C618.998 217.027 614.544 212.59 614.544 207.118C614.543 201.645 618.996 197.208 624.489 197.208C629.983 197.208 634.436 201.644 634.437 207.116" fill="#fddd19" fill-rule="nonzero" opacity="1" stroke="none"/>
<text fill="#efe9f4" font-family="Helvetica" font-size="8" opacity="1" stroke="none" text-anchor="start" transform="matrix(1 0 0 1 591.78 235.867)" x="0" y="0">
<tspan textLength="22.2266" x="9.74965" y="8">partly-</tspan>
<tspan textLength="38.6875" x="1.51918" y="18">cloudy-day</tspan>
</text>
<path d="M611.092 198.574C606.282 198.574 602.2 202.405 600.498 207.793C596.552 209.241 593.717 212.937 593.717 217.355C593.717 223.026 598.344 227.605 604.06 227.605C605.113 227.605 606.073 227.301 607.029 227.012C608.295 227.629 609.657 228.011 611.092 228.012C613.223 228.012 615.194 227.218 616.904 225.918C618.565 226.952 620.441 227.699 622.56 227.699C628.451 227.699 633.217 223.071 633.217 217.355C633.217 211.639 628.451 206.98 622.56 206.98C622.173 206.98 621.844 207.16 621.467 207.199C619.653 202.14 615.716 198.574 611.092 198.574Z" fill="#ebebeb" fill-rule="nonzero" opacity="1" stroke="#ebebeb" stroke-linecap="butt" stroke-linejoin="round" stroke-width="0.18516"/>
</g>
<g id="clear-night">
<path d="M456.745 214.458C454.432 218.827 449.937 221.793 444.759 221.793C437.234 221.793 431.142 215.533 431.142 207.802C431.142 202.482 434.028 197.864 438.282 195.488C437.245 197.468 436.651 199.732 436.651 202.143C436.651 209.874 442.744 216.134 450.268 216.134C452.614 216.134 454.818 215.522 456.745 214.458" fill="#fddd19" fill-rule="nonzero" opacity="1" stroke="none"/>
</g>
<g id="thunder-showers-day">
<g opacity="0.697674">
<path d="M207.05 296.298C206.414 297 205.431 297.144 204.853 296.621C204.275 296.097 204.322 295.104 204.957 294.403C205.377 293.94 206.888 293.426 207.694 293.16C208.047 293.043 208.119 293.138 208.037 293.501C207.851 294.329 207.469 295.835 207.05 296.298" fill="#30b3ff" fill-rule="nonzero" opacity="1" stroke="none"/>
<path d="M199.043 301.16C198.605 301.644 197.927 301.743 197.529 301.383C197.13 301.022 197.163 300.337 197.601 299.854C197.89 299.534 198.995 299.07 199.55 298.886C199.793 298.805 199.832 298.895 199.776 299.145C199.648 299.716 199.332 300.841 199.043 301.16" fill="#30b3ff" fill-rule="nonzero" opacity="1" stroke="none"/>
<path d="M197.816 296.173C197.271 296.775 196.427 296.899 195.931 296.45C195.435 296.001 195.476 295.149 196.021 294.547C196.381 294.15 197.68 293.729 198.372 293.5C198.674 293.4 198.714 293.488 198.644 293.799C198.485 294.509 198.176 295.776 197.816 296.173" fill="#30b3ff" fill-rule="nonzero" opacity="1" stroke="none"/>
</g>
<path d="M190.357 289.098L186.117 295.085C185.683 295.698 186.121 296.546 186.873 296.546C187.597 296.546 188.041 297.34 187.661 297.957L185.401 301.632C185.255 301.869 185.561 302.124 185.768 301.938L192.951 295.514C193.524 295.002 193.259 294.054 192.503 293.914L192.502 293.913C191.865 293.795 191.543 293.075 191.88 292.522L193.346 290.115C193.721 289.498 193.277 288.707 192.555 288.707L191.113 288.707C190.812 288.707 190.531 288.853 190.357 289.098" fill="#30b3ff" fill-rule="nonzero" opacity="1" stroke="none"/>
<path d="M218.563 273.216C216.885 276.3 213.625 278.394 209.87 278.394C204.412 278.394 199.994 273.975 199.994 268.518C199.994 264.762 202.087 261.502 205.172 259.825C204.42 261.223 203.989 262.821 203.989 264.523C203.989 269.98 208.408 274.399 213.865 274.399C215.567 274.399 217.165 273.967 218.563 273.216" fill="#fddd19" fill-rule="nonzero" opacity="1" stroke="none"/>
<text fill="#efe9f4" font-family="Helvetica" font-size="8" opacity="1" stroke="none" text-anchor="start" transform="matrix(1 0 0 1 165.563 306.942)" x="0" y="0">
<tspan textLength="29.7969" x="13.5715" y="8">thunder-</tspan>
<tspan textLength="52.0234" x="3.56956" y="18">showers-night </tspan>
</text>
<path d="M194.238 263.675C189.429 263.675 185.347 267.506 183.644 272.894C179.699 274.342 176.863 278.038 176.863 282.456C176.863 288.127 181.491 292.706 187.207 292.706C188.259 292.706 189.219 292.402 190.176 292.112C191.441 292.73 192.804 293.112 194.238 293.112C196.37 293.112 198.341 292.319 200.051 291.019C201.711 292.053 203.587 292.8 205.707 292.8C211.598 292.8 216.363 288.172 216.363 282.456C216.363 276.74 211.598 272.081 205.707 272.081C205.319 272.081 204.99 272.261 204.613 272.3C202.8 267.241 198.862 263.675 194.238 263.675Z" fill="#ebebeb" fill-rule="nonzero" opacity="1" stroke="#ebebeb" stroke-linecap="butt" stroke-linejoin="round" stroke-width="0.18516"/>
</g>
<g id="thunder-showers-day_2">
<g opacity="0.697674">
<path d="M272.74 296.403C272.104 297.105 271.121 297.249 270.543 296.726C269.965 296.202 270.012 295.209 270.647 294.508C271.067 294.045 272.578 293.53 273.384 293.264C273.737 293.147 273.809 293.243 273.727 293.606C273.541 294.434 273.159 295.94 272.74 296.403" fill="#30b3ff" fill-rule="nonzero" opacity="1" stroke="none"/>
<path d="M264.733 301.264C264.295 301.748 263.617 301.847 263.219 301.487C262.82 301.126 262.853 300.441 263.291 299.958C263.58 299.638 264.685 299.175 265.24 298.991C265.483 298.91 265.522 299 265.466 299.25C265.338 299.821 265.022 300.945 264.733 301.264" fill="#30b3ff" fill-rule="nonzero" opacity="1" stroke="none"/>
<path d="M263.506 296.277C262.961 296.879 262.117 297.003 261.621 296.554C261.125 296.105 261.166 295.253 261.711 294.651C262.071 294.254 263.37 293.833 264.062 293.604C264.364 293.504 264.404 293.593 264.334 293.904C264.175 294.614 263.866 295.88 263.506 296.277" fill="#30b3ff" fill-rule="nonzero" opacity="1" stroke="none"/>
</g>
<path d="M256.047 289.202L251.807 295.189C251.373 295.802 251.811 296.65 252.563 296.65C253.287 296.65 253.731 297.444 253.351 298.061L251.091 301.736C250.945 301.973 251.251 302.228 251.458 302.042L258.641 295.618C259.214 295.106 258.949 294.158 258.193 294.018L258.192 294.017C257.555 293.899 257.233 293.179 257.57 292.626L259.036 290.219C259.411 289.602 258.967 288.811 258.245 288.811L256.803 288.811C256.502 288.811 256.221 288.957 256.047 289.202" fill="#30b3ff" fill-rule="nonzero" opacity="1" stroke="none"/>
<path d="M283.273 272.323C283.273 277.778 278.851 282.2 273.396 282.2C267.942 282.2 263.52 277.778 263.52 272.323C263.52 266.868 267.942 262.446 273.396 262.446C278.851 262.446 283.273 266.868 283.273 272.323" fill="#fddd19" fill-rule="nonzero" opacity="1" stroke="none"/>
<text fill="#efe9f4" font-family="Helvetica" font-size="8" opacity="1" stroke="none" text-anchor="start" transform="matrix(1 0 0 1 228.333 306.942)" x="0" y="0">
<tspan textLength="29.7969" x="14.4237" y="8">thunder-</tspan>
<tspan textLength="45.3516" x="6.64635" y="18">showers-day</tspan>
</text>
<path d="M259.928 263.78C255.119 263.78 251.037 267.61 249.334 272.998C245.389 274.447 242.553 278.143 242.553 282.561C242.553 288.232 247.181 292.811 252.897 292.811C253.949 292.811 254.909 292.506 255.866 292.217C257.131 292.834 258.494 293.217 259.928 293.217C262.06 293.217 264.031 292.424 265.741 291.123C267.401 292.158 269.277 292.904 271.397 292.905C277.288 292.904 282.053 288.277 282.053 282.561C282.053 276.845 277.288 272.186 271.397 272.186C271.009 272.186 270.68 272.365 270.303 272.405C268.49 267.345 264.552 263.78 259.928 263.78Z" fill="#ebebeb" fill-rule="nonzero" opacity="1" stroke="#ebebeb" stroke-linecap="butt" stroke-linejoin="round" stroke-width="0.18516"/>
</g>
<g id="thunder-rain">
<g opacity="0.697674">
<path d="M338.551 294.964C337.915 295.666 336.932 295.81 336.354 295.287C335.776 294.763 335.823 293.77 336.458 293.069C336.878 292.606 338.39 292.092 339.196 291.826C339.549 291.709 339.62 291.804 339.538 292.167C339.352 292.995 338.97 294.501 338.551 294.964" fill="#30b3ff" fill-rule="nonzero" opacity="1" stroke="none"/>
<path d="M330.544 299.826C330.106 300.31 329.428 300.409 329.03 300.049C328.631 299.688 328.664 299.003 329.102 298.52C329.391 298.2 330.497 297.736 331.052 297.552C331.295 297.471 331.334 297.561 331.278 297.811C331.15 298.382 330.833 299.507 330.544 299.826" fill="#30b3ff" fill-rule="nonzero" opacity="1" stroke="none"/>
<path d="M329.317 294.839C328.772 295.441 327.928 295.565 327.432 295.116C326.936 294.667 326.977 293.815 327.522 293.213C327.882 292.816 329.181 292.395 329.873 292.166C330.175 292.066 330.215 292.154 330.145 292.465C329.986 293.175 329.677 294.442 329.317 294.839" fill="#30b3ff" fill-rule="nonzero" opacity="1" stroke="none"/>
</g>
<path d="M321.858 287.764L317.618 293.751C317.184 294.364 317.622 295.212 318.374 295.212C319.098 295.212 319.542 296.006 319.162 296.623L316.902 300.298C316.756 300.535 317.062 300.79 317.269 300.604L324.452 294.18C325.025 293.668 324.76 292.72 324.004 292.58L324.003 292.579C323.366 292.461 323.044 291.741 323.381 291.188L324.847 288.781C325.222 288.164 324.778 287.373 324.056 287.373L322.614 287.373C322.313 287.373 322.032 287.519 321.858 287.764" fill="#30b3ff" fill-rule="nonzero" opacity="1" stroke="none"/>
<text fill="#efe9f4" font-family="Helvetica" font-size="8" opacity="1" stroke="none" text-anchor="start" transform="matrix(1 0 0 1 303.371 308.975)" x="0" y="0">
<tspan textLength="43.1367" x="3.17511" y="8">thunder-rain</tspan>
</text>
<path d="M325.739 262.341C320.93 262.341 316.848 266.172 315.146 271.56C311.2 273.008 308.364 276.704 308.364 281.122C308.364 286.793 312.992 291.372 318.708 291.372C319.76 291.372 320.72 291.068 321.677 290.778C322.942 291.396 324.305 291.778 325.739 291.778C327.871 291.778 329.842 290.985 331.552 289.685C333.212 290.719 335.089 291.466 337.208 291.466C343.099 291.466 347.864 286.838 347.864 281.122C347.864 275.406 343.099 270.747 337.208 270.747C336.82 270.747 336.492 270.927 336.114 270.966C334.301 265.907 330.363 262.341 325.739 262.341Z" fill="#ebebeb" fill-rule="nonzero" opacity="1" stroke="#ebebeb" stroke-linecap="butt" stroke-linejoin="round" stroke-width="0.18516"/>
</g>
<g id="thunder">
<path d="M384.214 287.868L379.974 293.855C379.54 294.468 379.978 295.316 380.73 295.316C381.454 295.316 381.898 296.11 381.518 296.727L379.258 300.402C379.112 300.639 379.418 300.894 379.625 300.708L386.808 294.284C387.381 293.772 387.116 292.824 386.36 292.684L386.359 292.683C385.722 292.565 385.4 291.845 385.737 291.292L387.203 288.885C387.578 288.268 387.134 287.477 386.412 287.477L384.97 287.477C384.669 287.477 384.388 287.623 384.214 287.868" fill="#30b3ff" fill-rule="nonzero" opacity="1" stroke="none"/>
<text fill="#efe9f4" font-family="Helvetica" font-size="7.69538" opacity="1" stroke="none" text-anchor="start" transform="matrix(1 0 0 1 373.963 305.713)" x="0" y="0">
<tspan textLength="26.0997" x="2.42811" y="7">thunder</tspan>
</text>
<path d="M388.095 262.446C383.286 262.446 379.204 266.276 377.502 271.664C373.556 273.113 370.72 276.809 370.72 281.227C370.72 286.898 375.348 291.477 381.064 291.477C382.116 291.477 383.076 291.172 384.033 290.883C385.298 291.5 386.661 291.883 388.095 291.883C390.227 291.883 392.198 291.09 393.908 289.789C395.568 290.824 397.445 291.57 399.564 291.571C405.455 291.571 410.22 286.943 410.22 281.227C410.22 275.511 405.455 270.852 399.564 270.852C399.176 270.852 398.848 271.031 398.47 271.071C396.657 266.011 392.719 262.446 388.095 262.446Z" fill="#ebebeb" fill-rule="nonzero" opacity="1" stroke="#ebebeb" stroke-linecap="butt" stroke-linejoin="round" stroke-width="0.18516"/>
</g>
<g id="snow">
<g opacity="1">
<path d="M445.175 300.671C445.175 301.403 444.582 301.996 443.85 301.996C443.118 301.996 442.525 301.403 442.525 300.671C442.525 299.939 443.118 299.346 443.85 299.346C444.582 299.346 445.175 299.939 445.175 300.671" fill="#ffffff" fill-rule="nonzero" opacity="1" stroke="none"/>
<path d="M453.202 297.865C453.202 298.898 452.365 299.735 451.332 299.735C450.299 299.735 449.461 298.898 449.461 297.865C449.461 296.832 450.299 295.995 451.332 295.995C452.365 295.995 453.202 296.832 453.202 297.865" fill="#ffffff" fill-rule="nonzero" opacity="1" stroke="none"/>
<path d="M436.368 295.995C436.368 297.028 435.531 297.865 434.498 297.865C433.465 297.865 432.627 297.028 432.627 295.995C432.627 294.962 433.465 294.125 434.498 294.125C435.531 294.125 436.368 294.962 436.368 295.995" fill="#ffffff" fill-rule="nonzero" opacity="1" stroke="none"/>
</g>
<path d="M441.569 262.446C436.759 262.446 432.677 266.276 430.975 271.664C427.029 273.113 424.194 276.809 424.194 281.227C424.194 286.898 428.821 291.477 434.538 291.477C435.59 291.477 436.55 291.172 437.506 290.883C438.772 291.5 440.134 291.883 441.569 291.883C443.7 291.883 445.672 291.09 447.381 289.789C449.042 290.824 450.918 291.57 453.038 291.571C458.928 291.571 463.694 286.943 463.694 281.227C463.694 275.511 458.928 270.852 453.038 270.852C452.65 270.852 452.321 271.031 451.944 271.071C450.13 266.011 446.193 262.446 441.569 262.446Z" fill="#efe9f4" fill-rule="nonzero" opacity="1" stroke="#efe9f4" stroke-linecap="butt" stroke-linejoin="round" stroke-width="0.18516"/>
<text fill="#efe9f4" font-family="Helvetica" font-size="7.69538" opacity="1" stroke="none" text-anchor="start" transform="matrix(1 0 0 1 427.437 305.713)" x="0" y="0">
<tspan textLength="17.9647" x="6.49562" y="7">snow</tspan>
</text>
<path d="M441.569 262.446C436.759 262.446 432.677 266.276 430.975 271.664C427.029 273.113 424.194 276.809 424.194 281.227C424.194 286.898 428.821 291.477 434.538 291.477C435.59 291.477 436.55 291.172 437.506 290.883C438.772 291.5 440.134 291.883 441.569 291.883C443.7 291.883 445.672 291.09 447.381 289.789C449.042 290.824 450.918 291.57 453.038 291.571C458.928 291.571 463.694 286.943 463.694 281.227C463.694 275.511 458.928 270.852 453.038 270.852C452.65 270.852 452.321 271.031 451.944 271.071C450.13 266.011 446.193 262.446 441.569 262.446Z" fill="#ebebeb" fill-rule="nonzero" opacity="1" stroke="#ebebeb" stroke-linecap="butt" stroke-linejoin="round" stroke-width="0.18516"/>
</g>
<g id="snow-showers-day">
<path d="M518.106 270.409C518.106 275.864 513.684 280.286 508.229 280.286C502.775 280.286 498.353 275.864 498.353 270.409C498.353 264.954 502.775 260.532 508.229 260.532C513.684 260.532 518.106 264.954 518.106 270.409" fill="#fddd19" fill-rule="nonzero" opacity="1" stroke="none"/>
<text fill="#efe9f4" font-family="Helvetica" font-size="8" opacity="1" stroke="none" text-anchor="start" transform="matrix(1 0 0 1 469.209 306.975)" x="0" y="0">
<tspan textLength="53.793" x="0.740556" y="8">snow-showers-</tspan>
<tspan textLength="12.8984" x="21.1878" y="18">day</tspan>
</text>
<g opacity="1">
<path d="M499.396 300.091C499.396 300.823 498.803 301.416 498.071 301.416C497.339 301.416 496.746 300.823 496.746 300.091C496.746 299.359 497.339 298.766 498.071 298.766C498.803 298.766 499.396 299.359 499.396 300.091" fill="#ffffff" fill-rule="nonzero" opacity="1" stroke="none"/>
<path d="M507.423 297.286C507.423 298.319 506.586 299.156 505.553 299.156C504.52 299.156 503.682 298.319 503.682 297.286C503.682 296.253 504.52 295.416 505.553 295.416C506.586 295.416 507.423 296.253 507.423 297.286" fill="#ffffff" fill-rule="nonzero" opacity="1" stroke="none"/>
<path d="M490.589 295.415C490.589 296.448 489.752 297.285 488.719 297.285C487.686 297.285 486.848 296.448 486.848 295.415C486.848 294.382 487.686 293.545 488.719 293.545C489.752 293.545 490.589 294.382 490.589 295.415" fill="#ffffff" fill-rule="nonzero" opacity="1" stroke="none"/>
</g>
<path d="M494.761 261.848C489.951 261.848 485.869 265.679 484.167 271.067C480.221 272.515 477.386 276.211 477.386 280.629C477.386 286.3 482.013 290.879 487.729 290.879C488.781 290.879 489.741 290.575 490.698 290.286C491.964 290.903 493.326 291.285 494.761 291.286C496.892 291.286 498.863 290.493 500.573 289.192C502.233 290.226 504.11 290.973 506.229 290.973C512.12 290.973 516.886 286.345 516.886 280.629C516.886 274.913 512.12 270.254 506.229 270.254C505.841 270.254 505.513 270.434 505.136 270.473C503.322 265.414 499.385 261.848 494.761 261.848Z" fill="#ebebeb" fill-rule="nonzero" opacity="1" stroke="#ebebeb" stroke-linecap="butt" stroke-linejoin="round" stroke-width="0.18516"/>
</g>
<g id="snow-showers-night">
<path d="M578.129 272.346C576.451 275.43 573.191 277.524 569.436 277.524C563.978 277.524 559.56 273.105 559.56 267.648C559.56 263.892 561.653 260.632 564.738 258.955C563.986 260.353 563.555 261.951 563.555 263.653C563.555 269.11 567.974 273.529 573.431 273.529C575.133 273.529 576.731 273.097 578.129 272.346" fill="#fddd19" fill-rule="nonzero" opacity="1" stroke="none"/>
<g opacity="1">
<path d="M558.244 301.191C558.244 301.923 557.651 302.516 556.919 302.516C556.187 302.516 555.594 301.923 555.594 301.191C555.594 300.459 556.187 299.866 556.919 299.866C557.651 299.866 558.244 300.459 558.244 301.191" fill="#ffffff" fill-rule="nonzero" opacity="1" stroke="none"/>
<path d="M566.271 298.385C566.271 299.418 565.434 300.255 564.401 300.255C563.368 300.255 562.53 299.418 562.53 298.385C562.53 297.352 563.368 296.515 564.401 296.515C565.434 296.515 566.271 297.352 566.271 298.385" fill="#ffffff" fill-rule="nonzero" opacity="1" stroke="none"/>
<path d="M549.437 296.515C549.437 297.548 548.6 298.385 547.567 298.385C546.534 298.385 545.696 297.548 545.696 296.515C545.696 295.482 546.534 294.645 547.567 294.645C548.6 294.645 549.437 295.482 549.437 296.515" fill="#ffffff" fill-rule="nonzero" opacity="1" stroke="none"/>
</g>
<text fill="#efe9f4" font-family="Helvetica" font-size="8" opacity="1" stroke="none" text-anchor="start" transform="matrix(1 0 0 1 528.057 308.075)" x="0" y="0">
<tspan textLength="53.793" x="0.740556" y="8">snow-showers-</tspan>
<tspan textLength="12.8984" x="21.1878" y="18">day</tspan>
</text>
<path d="M553.609 262.983C548.799 262.983 544.717 266.814 543.015 272.202C539.069 273.65 536.234 277.346 536.234 281.764C536.234 287.435 540.861 292.014 546.578 292.014C547.63 292.014 548.59 291.71 549.546 291.421C550.812 292.038 552.174 292.42 553.609 292.421C555.74 292.421 557.712 291.628 559.421 290.327C561.082 291.361 562.958 292.108 565.078 292.108C570.968 292.108 575.734 287.48 575.734 281.764C575.734 276.048 570.968 271.389 565.078 271.389C564.69 271.389 564.361 271.569 563.984 271.608C562.17 266.549 558.233 262.983 553.609 262.983Z" fill="#ebebeb" fill-rule="nonzero" opacity="1" stroke="#ebebeb" stroke-linecap="butt" stroke-linejoin="round" stroke-width="0.18516"/>
</g>
<g id="rain-snow">
<g opacity="1">
<path d="M608.467 298.407C608.473 298.912 608.073 299.325 607.575 299.331C607.076 299.337 606.668 298.932 606.662 298.427C606.657 297.922 607.056 297.508 607.554 297.503C608.053 297.497 608.461 297.902 608.467 298.407" fill="#ffffff" fill-rule="nonzero" opacity="1" stroke="none"/>
<path d="M617.538 298.886C617.543 299.388 617.139 299.799 616.635 299.805C616.131 299.811 615.717 299.408 615.712 298.906C615.706 298.404 616.111 297.992 616.615 297.987C617.119 297.981 617.532 298.383 617.538 298.886" fill="#ffffff" fill-rule="nonzero" opacity="1" stroke="none"/>
<path d="M614.912 294.212C614.919 294.886 614.361 295.438 613.665 295.446C612.968 295.453 612.397 294.914 612.39 294.24C612.382 293.567 612.941 293.014 613.638 293.007C614.334 292.999 614.904 293.538 614.912 294.212" fill="#ffffff" fill-rule="nonzero" opacity="1" stroke="none"/>
</g>
<text fill="#efe9f4" font-family="Helvetica" font-size="8" opacity="1" stroke="none" text-anchor="start" transform="matrix(1 0 0 1 594.657 307.838)" x="0" y="0">
<tspan textLength="34.6797" x="1.65387" y="8">rain-snow</tspan>
</text>
<g opacity="1">
<path d="M605.98 295.714C605.344 296.416 604.361 296.56 603.783 296.037C603.205 295.513 603.252 294.52 603.887 293.819C604.307 293.356 605.848 292.762 606.654 292.496C607.007 292.379 607.07 292.511 606.988 292.874C606.802 293.702 606.399 295.251 605.98 295.714" fill="#30b3ff" fill-rule="nonzero" opacity="1" stroke="none"/>
<path d="M622.906 298.074C622.27 298.776 621.287 298.92 620.709 298.397C620.131 297.873 620.178 296.88 620.813 296.179C621.233 295.716 622.745 295.201 623.551 294.935C623.904 294.818 623.975 294.914 623.893 295.277C623.707 296.105 623.325 297.611 622.906 298.074" fill="#30b3ff" fill-rule="nonzero" opacity="1" stroke="none"/>
<path d="M611.954 302.004C611.409 302.606 610.565 302.73 610.069 302.281C609.573 301.832 609.614 300.98 610.159 300.378C610.519 299.981 611.818 299.56 612.51 299.331C612.812 299.231 612.852 299.319 612.782 299.63C612.623 300.34 612.314 301.607 611.954 302.004" fill="#30b3ff" fill-rule="nonzero" opacity="1" stroke="none"/>
</g>
<path d="M612.305 262.341C607.495 262.341 603.414 266.172 601.711 271.56C597.766 273.008 594.93 276.704 594.93 281.122C594.93 286.793 599.557 291.372 605.274 291.372C606.326 291.372 607.286 291.068 608.243 290.778C609.508 291.396 610.871 291.778 612.305 291.778C614.437 291.778 616.408 290.985 618.118 289.685C619.778 290.719 621.654 291.466 623.774 291.466C629.665 291.466 634.43 286.838 634.43 281.122C634.43 275.406 629.665 270.747 623.774 270.747C623.386 270.747 623.057 270.927 622.68 270.966C620.867 265.907 616.929 262.341 612.305 262.341Z" fill="#ebebeb" fill-rule="nonzero" opacity="1" stroke="#ebebeb" stroke-linecap="butt" stroke-linejoin="round" stroke-width="0.18516"/>
</g>
<g id="rain-snow-showers-day">
<g opacity="1">
<path d="M190.4 380.357C190.406 380.862 190.007 381.276 189.508 381.282C189.01 381.287 188.601 380.883 188.596 380.378C188.59 379.873 188.989 379.459 189.488 379.453C189.986 379.448 190.395 379.852 190.4 380.357" fill="#ffffff" fill-rule="nonzero" opacity="1" stroke="none"/>
<path d="M199.471 380.836C199.477 381.339 199.073 381.75 198.568 381.756C198.064 381.761 197.651 381.359 197.645 380.857C197.639 380.354 198.044 379.943 198.548 379.937C199.052 379.932 199.465 380.334 199.471 380.836" fill="#ffffff" fill-rule="nonzero" opacity="1" stroke="none"/>
<path d="M196.845 376.163C196.853 376.836 196.294 377.388 195.598 377.396C194.902 377.404 194.331 376.865 194.323 376.191C194.315 375.517 194.874 374.965 195.571 374.957C196.267 374.95 196.838 375.489 196.845 376.163" fill="#ffffff" fill-rule="nonzero" opacity="1" stroke="none"/>
</g>
<path d="M217.736 352.835C217.736 358.29 213.314 362.712 207.859 362.712C202.405 362.712 197.983 358.29 197.983 352.835C197.983 347.38 202.405 342.958 207.859 342.958C213.314 342.958 217.736 347.38 217.736 352.835" fill="#fddd19" fill-rule="nonzero" opacity="1" stroke="none"/>
<text fill="#efe9f4" font-family="Helvetica" font-size="8" opacity="1" stroke="none" text-anchor="start" transform="matrix(1 0 0 1 169.211 389.789)" x="0" y="0">
<tspan textLength="37.3438" x="6.15073" y="8">rain-snow-</tspan>
<tspan textLength="45.3516" x="2.14682" y="18">showers-day</tspan>
</text>
<g opacity="1">
<path d="M187.913 377.664C187.277 378.366 186.294 378.51 185.716 377.987C185.138 377.463 185.185 376.47 185.82 375.769C186.24 375.306 187.782 374.712 188.588 374.446C188.941 374.329 189.004 374.462 188.922 374.825C188.736 375.653 188.332 377.201 187.913 377.664" fill="#30b3ff" fill-rule="nonzero" opacity="1" stroke="none"/>
<path d="M204.839 380.025C204.203 380.727 203.22 380.871 202.642 380.348C202.064 379.824 202.111 378.831 202.746 378.13C203.166 377.667 204.678 377.152 205.484 376.886C205.837 376.769 205.908 376.865 205.826 377.228C205.64 378.056 205.258 379.562 204.839 380.025" fill="#30b3ff" fill-rule="nonzero" opacity="1" stroke="none"/>
<path d="M193.887 383.955C193.342 384.557 192.498 384.681 192.002 384.232C191.506 383.783 191.547 382.931 192.092 382.329C192.452 381.932 193.751 381.511 194.443 381.282C194.745 381.182 194.785 381.27 194.715 381.581C194.556 382.291 194.247 383.558 193.887 383.955" fill="#30b3ff" fill-rule="nonzero" opacity="1" stroke="none"/>
</g>
<path d="M194.238 344.292C189.429 344.292 185.347 348.122 183.644 353.51C179.699 354.959 176.863 358.655 176.863 363.073C176.863 368.744 181.491 373.323 187.207 373.323C188.259 373.323 189.219 373.018 190.176 372.729C191.441 373.346 192.804 373.729 194.238 373.729C196.37 373.729 198.341 372.936 200.051 371.635C201.711 372.67 203.587 373.416 205.707 373.417C211.598 373.417 216.363 368.789 216.363 363.073C216.363 357.357 211.598 352.698 205.707 352.698C205.319 352.698 204.99 352.877 204.613 352.917C202.8 347.858 198.862 344.292 194.238 344.292Z" fill="#ebebeb" fill-rule="nonzero" opacity="1" stroke="#ebebeb" stroke-linecap="butt" stroke-linejoin="round" stroke-width="0.18516"/>
</g>
<g id="rain-snow-showers-night">
<g opacity="1">
<path d="M255.312 380.458C255.318 380.963 254.919 381.377 254.42 381.383C253.922 381.388 253.513 380.984 253.508 380.479C253.502 379.974 253.901 379.56 254.4 379.554C254.898 379.549 255.307 379.953 255.312 380.458" fill="#ffffff" fill-rule="nonzero" opacity="1" stroke="none"/>
<path d="M264.383 380.937C264.389 381.44 263.985 381.851 263.481 381.857C262.976 381.862 262.563 381.46 262.557 380.958C262.552 380.455 262.956 380.044 263.46 380.038C263.964 380.033 264.378 380.435 264.383 380.937" fill="#ffffff" fill-rule="nonzero" opacity="1" stroke="none"/>
<path d="M261.757 376.264C261.765 376.937 261.207 377.489 260.51 377.497C259.814 377.505 259.243 376.965 259.235 376.292C259.228 375.618 259.786 375.066 260.483 375.058C261.179 375.051 261.75 375.59 261.757 376.264" fill="#ffffff" fill-rule="nonzero" opacity="1" stroke="none"/>
</g>
<path d="M283.397 353.933C281.719 357.017 278.459 359.111 274.704 359.111C269.246 359.111 264.828 354.692 264.828 349.235C264.828 345.479 266.921 342.219 270.006 340.542C269.254 341.94 268.823 343.538 268.823 345.24C268.823 350.697 273.242 355.116 278.699 355.116C280.401 355.116 281.999 354.684 283.397 353.933" fill="#fddd19" fill-rule="nonzero" opacity="1" stroke="none"/>
<text fill="#efe9f4" font-family="Helvetica" font-size="8" opacity="1" stroke="none" text-anchor="start" transform="matrix(1 0 0 1 233.52 389.89)" x="0" y="0">
<tspan textLength="39.5664" x="6.6412" y="8"> rain-snow-</tspan>
<tspan textLength="49.8008" x="1.52401" y="18">showers-night</tspan>
</text>
<g opacity="1">
<path d="M252.825 377.765C252.189 378.467 251.206 378.611 250.628 378.088C250.05 377.564 250.097 376.571 250.732 375.87C251.152 375.407 252.694 374.813 253.5 374.547C253.853 374.43 253.916 374.563 253.834 374.926C253.648 375.754 253.244 377.302 252.825 377.765" fill="#30b3ff" fill-rule="nonzero" opacity="1" stroke="none"/>
<path d="M269.751 380.126C269.115 380.828 268.132 380.972 267.554 380.449C266.976 379.925 267.023 378.932 267.658 378.231C268.078 377.768 269.59 377.253 270.396 376.987C270.749 376.87 270.82 376.966 270.738 377.329C270.552 378.157 270.17 379.663 269.751 380.126" fill="#30b3ff" fill-rule="nonzero" opacity="1" stroke="none"/>
<path d="M258.799 384.056C258.254 384.658 257.41 384.782 256.914 384.333C256.418 383.884 256.459 383.032 257.004 382.43C257.364 382.033 258.663 381.612 259.355 381.383C259.657 381.283 259.697 381.371 259.627 381.682C259.468 382.392 259.159 383.659 258.799 384.056" fill="#30b3ff" fill-rule="nonzero" opacity="1" stroke="none"/>
</g>
<path d="M259.15 344.393C254.341 344.393 250.259 348.223 248.557 353.611C244.611 355.06 241.775 358.756 241.775 363.174C241.775 368.845 246.403 373.424 252.119 373.424C253.171 373.424 254.131 373.119 255.088 372.83C256.353 373.447 257.716 373.83 259.15 373.83C261.282 373.83 263.253 373.037 264.963 371.736C266.623 372.771 268.499 373.517 270.619 373.518C276.51 373.518 281.275 368.89 281.275 363.174C281.275 357.458 276.51 352.799 270.619 352.799C270.231 352.799 269.903 352.978 269.525 353.018C267.712 347.958 263.774 344.393 259.15 344.393Z" fill="#ebebeb" fill-rule="nonzero" opacity="1" stroke="#ebebeb" stroke-linecap="butt" stroke-linejoin="round" stroke-width="0.18516"/>
</g>
<g id="hail">
<text fill="#efe9f4" font-family="Helvetica" font-size="7.69538" opacity="1" stroke="none" text-anchor="start" transform="matrix(1 0 0 1 311.607 386.225)" x="0" y="0">
<tspan textLength="11.9789" x="9.48847" y="7">hail</tspan>
</text>
<g opacity="1">
<path d="M318.516 374.715L320.555 376.174L319.798 378.563L317.291 378.582L316.499 376.204L318.516 374.715Z" fill="#efe9f4" fill-rule="nonzero" opacity="1" stroke="#efe9f4" stroke-linecap="butt" stroke-linejoin="round" stroke-width="0.18516"/>
<path d="M328.114 382.508L326.838 381.581L327.326 380.08L328.903 380.08L329.391 381.581L328.114 382.508Z" fill="#efe9f4" fill-rule="nonzero" opacity="1" stroke="#efe9f4" stroke-linecap="butt" stroke-linejoin="round" stroke-width="0.18516"/>
<path d="M335.467 380.419L333.594 378.934L334.427 376.694L336.815 376.795L337.458 379.097L335.467 380.419Z" fill="#efe9f4" fill-rule="nonzero" opacity="1" stroke="#efe9f4" stroke-linecap="butt" stroke-linejoin="round" stroke-width="0.18516"/>
</g>
<path d="M325.739 342.958C320.93 342.958 316.848 346.788 315.146 352.176C311.2 353.625 308.364 357.321 308.364 361.739C308.364 367.41 312.992 371.989 318.708 371.989C319.76 371.989 320.72 371.685 321.677 371.395C322.942 372.012 324.305 372.395 325.739 372.395C327.871 372.395 329.842 371.602 331.552 370.301C333.212 371.336 335.089 372.082 337.208 372.083C343.099 372.083 347.864 367.455 347.864 361.739C347.864 356.023 343.099 351.364 337.208 351.364C336.82 351.364 336.492 351.543 336.114 351.583C334.301 346.524 330.363 342.958 325.739 342.958Z" fill="#ebebeb" fill-rule="nonzero" opacity="1" stroke="#ebebeb" stroke-linecap="butt" stroke-linejoin="round" stroke-width="0.18516"/>
</g>
<g id="fog">
<path d="M343.473 322.863C338.664 322.863 334.582 326.694 332.88 332.082C328.934 333.53 326.098 337.226 326.098 341.644C326.098 347.315 330.726 351.894 336.442 351.894C337.494 351.894 338.454 351.59 339.411 351.3C340.676 351.918 342.039 352.3 343.473 352.3C345.605 352.3 347.576 351.507 349.286 350.207C350.946 351.241 352.822 351.988 354.942 351.988C360.833 351.988 365.598 347.36 365.598 341.644C365.598 335.928 360.833 331.269 354.942 331.269C354.554 331.269 354.226 331.449 353.848 331.488C352.035 326.429 348.097 322.863 343.473 322.863Z" fill="#efe9f4" fill-rule="nonzero" opacity="0" stroke="#efe9f4" stroke-linecap="butt" stroke-linejoin="round" stroke-width="0.18516"/>
<text fill="#efe9f4" font-family="Helvetica" font-size="7.69538" opacity="1" stroke="none" text-anchor="start" transform="matrix(1 0 0 1 369.438 385.681)" x="0" y="0">
<tspan textLength="10.6976" x="10.1291" y="7">fog
</tspan>
</text>
<g opacity="0">
<path d="M364.912 357.265C364.912 357.265 364.533 357.246 363.868 357.212C363.209 357.176 362.278 357.13 361.183 357.05C360.089 356.973 358.83 356.868 357.524 356.697C356.871 356.611 356.211 356.504 355.55 356.381C354.893 356.252 354.244 356.102 353.616 355.924L352.501 355.655C352.085 355.58 351.645 355.516 351.23 355.464C350.424 355.387 349.63 355.37 348.876 355.407C347.365 355.48 346.022 355.745 344.932 356.048C343.841 356.357 342.997 356.701 342.431 356.968C341.864 357.234 341.576 357.423 341.576 357.423C341.576 357.423 341.951 357.378 342.609 357.297C343.259 357.224 344.179 357.122 345.263 357.05C346.346 356.975 347.593 356.925 348.88 356.983C349.204 356.994 349.523 357.03 349.849 357.049C350.172 357.079 350.489 357.131 350.816 357.163C351.117 357.215 351.397 357.276 351.701 357.322L352.697 357.575C353.079 357.669 353.46 357.776 353.846 357.856C354.231 357.93 354.618 358.007 355.003 358.058C355.774 358.169 356.536 358.233 357.271 358.258C358.742 358.312 360.099 358.22 361.238 358.074C362.378 357.925 363.301 357.726 363.934 357.56C364.568 357.396 364.912 357.265 364.912 357.265" fill="#ffffff" fill-rule="nonzero" opacity="1" stroke="none"/>
<path d="M348.748 359.061C348.748 359.061 348.368 359.042 347.704 359.008C347.045 358.972 346.114 358.926 345.019 358.846C343.925 358.769 342.666 358.664 341.36 358.493C340.707 358.407 340.047 358.3 339.386 358.177C338.729 358.048 338.08 357.898 337.452 357.72L336.337 357.451C335.921 357.376 335.481 357.312 335.066 357.26C334.26 357.183 333.466 357.166 332.712 357.203C331.201 357.276 329.858 357.541 328.768 357.844C327.677 358.153 326.833 358.497 326.267 358.764C325.7 359.03 325.412 359.219 325.412 359.219C325.412 359.219 325.787 359.174 326.445 359.093C327.095 359.02 328.015 358.918 329.099 358.846C330.182 358.771 331.429 358.721 332.716 358.779C333.04 358.79 333.359 358.826 333.685 358.845C334.007 358.875 334.325 358.927 334.652 358.959C334.953 359.011 335.233 359.072 335.537 359.118L336.533 359.371C336.915 359.465 337.296 359.572 337.682 359.652C338.067 359.726 338.454 359.803 338.839 359.854C339.61 359.965 340.372 360.029 341.107 360.054C342.578 360.108 343.935 360.016 345.074 359.87C346.214 359.721 347.137 359.522 347.77 359.356C348.404 359.192 348.748 359.061 348.748 359.061" fill="#ffffff" fill-rule="nonzero" opacity="1" stroke="none"/>
<path d="M331.18 352.748C331.18 352.748 331.603 352.738 332.344 352.722C333.078 352.703 334.115 352.681 335.336 352.629C336.555 352.58 337.96 352.507 339.42 352.369C340.15 352.3 340.893 352.21 341.633 352.105C342.371 351.992 343.101 351.859 343.809 351.697L345.063 351.457C345.531 351.393 346.024 351.34 346.489 351.299C347.388 351.243 348.271 351.246 349.106 351.302C350.779 351.414 352.255 351.713 353.447 352.044C354.64 352.38 355.557 352.746 356.169 353.027C356.782 353.308 357.091 353.504 357.091 353.504C357.091 353.504 356.677 353.449 355.951 353.352C355.234 353.262 354.218 353.136 353.018 353.036C351.82 352.934 350.437 352.852 349.005 352.877C348.645 352.88 348.289 352.908 347.924 352.918C347.564 352.94 347.208 352.984 346.844 353.008C346.505 353.052 346.191 353.105 345.85 353.144L344.73 353.371C344.298 353.455 343.868 353.552 343.436 353.622C343.003 353.686 342.568 353.753 342.137 353.795C341.275 353.885 340.423 353.93 339.606 353.936C337.968 353.952 336.467 353.826 335.21 353.651C333.954 353.472 332.941 353.25 332.249 353.068C331.554 352.887 331.18 352.748 331.18 352.748" fill="#ffffff" fill-rule="nonzero" opacity="1" stroke="none"/>
</g>
<g opacity="1">
<path d="M406.196 368.028C406.196 368.028 405.845 368.009 405.231 367.975C404.622 367.939 403.761 367.893 402.75 367.813C401.739 367.736 400.575 367.631 399.368 367.46C398.764 367.374 398.154 367.267 397.543 367.144C396.936 367.015 396.336 366.865 395.756 366.687L394.725 366.418C394.341 366.343 393.934 366.279 393.551 366.227C392.806 366.15 392.072 366.133 391.374 366.17C389.978 366.243 388.737 366.508 387.73 366.811C386.721 367.12 385.941 367.464 385.418 367.731C384.894 367.997 384.628 368.186 384.628 368.186C384.628 368.186 384.974 368.141 385.582 368.06C386.183 367.987 387.034 367.885 388.036 367.813C389.036 367.738 390.189 367.688 391.379 367.746C391.678 367.757 391.973 367.793 392.274 367.812C392.572 367.842 392.866 367.894 393.168 367.926C393.446 367.978 393.704 368.039 393.986 368.085L394.906 368.338C395.26 368.432 395.612 368.539 395.968 368.619C396.324 368.693 396.682 368.77 397.038 368.821C397.75 368.932 398.454 368.996 399.134 369.021C400.493 369.075 401.748 368.983 402.8 368.837C403.854 368.688 404.707 368.489 405.292 368.323C405.878 368.159 406.196 368.028 406.196 368.028" fill="#ebebeb" fill-rule="nonzero" opacity="1" stroke="none"/>
<path d="M391.256 369.824C391.256 369.824 390.906 369.805 390.291 369.771C389.682 369.735 388.822 369.689 387.81 369.609C386.799 369.532 385.635 369.427 384.428 369.256C383.825 369.17 383.214 369.063 382.604 368.94C381.996 368.811 381.397 368.661 380.816 368.483L379.786 368.214C379.401 368.139 378.995 368.075 378.611 368.023C377.866 367.946 377.132 367.929 376.435 367.966C375.039 368.039 373.798 368.304 372.79 368.607C371.782 368.916 371.001 369.26 370.478 369.527C369.955 369.793 369.688 369.982 369.688 369.982C369.688 369.982 370.035 369.937 370.642 369.856C371.243 369.783 372.094 369.681 373.096 369.609C374.097 369.534 375.249 369.484 376.439 369.542C376.738 369.553 377.033 369.589 377.335 369.608C377.633 369.638 377.926 369.69 378.228 369.722C378.507 369.774 378.765 369.835 379.046 369.881L379.967 370.134C380.32 370.228 380.672 370.335 381.028 370.415C381.384 370.489 381.742 370.566 382.098 370.617C382.81 370.728 383.515 370.792 384.194 370.817C385.554 370.871 386.808 370.779 387.861 370.633C388.914 370.484 389.768 370.285 390.352 370.119C390.938 369.955 391.256 369.824 391.256 369.824" fill="#ebebeb" fill-rule="nonzero" opacity="1" stroke="none"/>
<path d="M375.019 363.511C375.019 363.511 375.411 363.501 376.095 363.485C376.774 363.466 377.731 363.444 378.86 363.392C379.987 363.343 381.285 363.27 382.635 363.132C383.31 363.063 383.996 362.973 384.681 362.868C385.362 362.755 386.038 362.622 386.692 362.46L387.851 362.22C388.283 362.156 388.739 362.103 389.168 362.062C389.999 362.006 390.815 362.009 391.587 362.065C393.133 362.177 394.498 362.476 395.599 362.807C396.702 363.143 397.55 363.509 398.115 363.79C398.682 364.071 398.967 364.267 398.967 364.267C398.967 364.267 398.585 364.212 397.914 364.115C397.251 364.025 396.312 363.899 395.203 363.799C394.096 363.697 392.817 363.615 391.494 363.64C391.161 363.643 390.832 363.671 390.495 363.681C390.163 363.703 389.833 363.747 389.496 363.771C389.183 363.815 388.893 363.868 388.578 363.907L387.542 364.134C387.144 364.218 386.746 364.315 386.347 364.385C385.947 364.449 385.545 364.516 385.146 364.558C384.35 364.648 383.562 364.693 382.807 364.699C381.293 364.715 379.906 364.589 378.744 364.414C377.583 364.235 376.647 364.013 376.007 363.831C375.365 363.65 375.019 363.511 375.019 363.511" fill="#ebebeb" fill-rule="nonzero" opacity="1" stroke="none"/>
</g>
<g opacity="1">
<path d="M409.51 360.25C409.51 360.25 409.16 360.231 408.545 360.197C407.936 360.161 407.076 360.115 406.064 360.035C405.053 359.958 403.889 359.853 402.682 359.682C402.078 359.596 401.468 359.489 400.858 359.366C400.25 359.237 399.651 359.087 399.07 358.909L398.04 358.64C397.655 358.565 397.249 358.501 396.865 358.449C396.12 358.372 395.386 358.355 394.689 358.392C393.293 358.465 392.052 358.73 391.044 359.033C390.036 359.342 389.255 359.686 388.732 359.953C388.209 360.219 387.942 360.408 387.942 360.408C387.942 360.408 388.289 360.363 388.896 360.282C389.497 360.209 390.348 360.107 391.35 360.035C392.351 359.96 393.503 359.91 394.693 359.968C394.992 359.979 395.287 360.015 395.589 360.034C395.886 360.064 396.18 360.116 396.482 360.148C396.76 360.2 397.019 360.261 397.3 360.307L398.22 360.56C398.574 360.654 398.926 360.761 399.282 360.841C399.638 360.915 399.996 360.992 400.352 361.043C401.064 361.154 401.768 361.218 402.448 361.243C403.808 361.297 405.062 361.205 406.114 361.059C407.168 360.91 408.022 360.711 408.606 360.545C409.192 360.381 409.51 360.25 409.51 360.25" fill="#ebebeb" fill-rule="nonzero" opacity="1" stroke="none"/>
<path d="M386.736 360.25C386.736 360.25 386.385 360.231 385.771 360.197C385.162 360.161 384.301 360.115 383.29 360.035C382.278 359.958 381.115 359.853 379.908 359.682C379.304 359.596 378.694 359.489 378.083 359.366C377.476 359.237 376.876 359.087 376.296 358.909L375.265 358.64C374.881 358.565 374.474 358.501 374.091 358.449C373.346 358.372 372.612 358.355 371.914 358.392C370.518 358.465 369.277 358.73 368.27 359.033C367.261 359.342 366.481 359.686 365.957 359.953C365.434 360.219 365.168 360.408 365.168 360.408C365.168 360.408 365.514 360.363 366.122 360.282C366.723 360.209 367.574 360.107 368.576 360.035C369.576 359.96 370.729 359.91 371.918 359.968C372.217 359.979 372.512 360.015 372.814 360.034C373.112 360.064 373.406 360.116 373.707 360.148C373.986 360.2 374.244 360.261 374.526 360.307L375.446 360.56C375.799 360.654 376.152 360.761 376.508 360.841C376.864 360.915 377.221 360.992 377.578 361.043C378.29 361.154 378.994 361.218 379.674 361.243C381.033 361.297 382.288 361.205 383.34 361.059C384.394 360.91 385.247 360.711 385.832 360.545C386.418 360.381 386.736 360.25 386.736 360.25" fill="#ebebeb" fill-rule="nonzero" opacity="1" stroke="none"/>
<path d="M375.365 356.189C375.365 356.189 375.756 356.179 376.441 356.163C377.119 356.144 378.077 356.122 379.206 356.07C380.333 356.021 381.631 355.948 382.98 355.81C383.656 355.741 384.342 355.651 385.026 355.546C385.708 355.433 386.383 355.3 387.038 355.138L388.196 354.898C388.629 354.834 389.085 354.781 389.514 354.74C390.345 354.684 391.161 354.687 391.933 354.743C393.479 354.855 394.843 355.154 395.945 355.485C397.048 355.821 397.896 356.187 398.461 356.468C399.027 356.749 399.313 356.945 399.313 356.945C399.313 356.945 398.931 356.89 398.26 356.793C397.596 356.703 396.658 356.577 395.549 356.477C394.441 356.375 393.163 356.293 391.839 356.318C391.507 356.321 391.178 356.349 390.841 356.359C390.508 356.381 390.179 356.425 389.842 356.449C389.529 356.493 389.239 356.546 388.923 356.585L387.888 356.812C387.489 356.896 387.092 356.993 386.693 357.063C386.293 357.127 385.891 357.194 385.492 357.236C384.695 357.326 383.908 357.371 383.153 357.377C381.639 357.393 380.252 357.267 379.09 357.092C377.929 356.913 376.992 356.691 376.353 356.509C375.711 356.328 375.365 356.189 375.365 356.189" fill="#ebebeb" fill-rule="nonzero" opacity="1" stroke="none"/>
</g>
</g>
<g id="wind">
<text fill="#efe9f4" font-family="Helvetica" font-size="7.69538" opacity="1" stroke="none" text-anchor="start" transform="matrix(1 0 0 1 426.067 386.41)" x="0" y="0">
<tspan textLength="15.8266" x="7.56463" y="7">wind
</tspan>
</text>
<g opacity="1">
<path d="M463.351 379.844C463.351 379.844 462.971 379.825 462.306 379.791C461.648 379.755 460.716 379.709 459.622 379.629C458.528 379.552 457.269 379.447 455.963 379.276C455.31 379.19 454.649 379.083 453.989 378.96C453.332 378.831 452.683 378.681 452.055 378.503L450.94 378.234C450.524 378.159 450.084 378.095 449.669 378.043C448.863 377.966 448.069 377.949 447.314 377.986C445.804 378.059 444.461 378.324 443.371 378.627C442.28 378.936 441.436 379.28 440.869 379.547C440.303 379.813 440.015 380.002 440.015 380.002C440.015 380.002 440.39 379.957 441.047 379.876C441.697 379.803 442.618 379.701 443.702 379.629C444.785 379.554 446.032 379.504 447.319 379.562C447.642 379.573 447.962 379.609 448.288 379.628C448.61 379.658 448.928 379.71 449.254 379.742C449.556 379.794 449.835 379.855 450.14 379.901L451.136 380.154C451.518 380.248 451.899 380.355 452.284 380.435C452.67 380.509 453.056 380.586 453.442 380.637C454.213 380.748 454.974 380.812 455.71 380.837C457.181 380.891 458.538 380.799 459.677 380.653C460.817 380.504 461.74 380.305 462.373 380.139C463.007 379.975 463.351 379.844 463.351 379.844" fill="#b2e3ff" fill-rule="nonzero" opacity="1" stroke="none"/>
<path d="M447.187 381.641C447.187 381.641 446.807 381.622 446.142 381.588C445.483 381.552 444.552 381.506 443.458 381.426C442.364 381.349 441.105 381.244 439.799 381.073C439.146 380.987 438.485 380.88 437.825 380.757C437.167 380.628 436.519 380.478 435.891 380.3L434.776 380.031C434.36 379.956 433.92 379.892 433.505 379.84C432.699 379.763 431.905 379.746 431.15 379.783C429.64 379.856 428.297 380.121 427.207 380.424C426.116 380.733 425.272 381.077 424.705 381.344C424.139 381.61 423.851 381.799 423.851 381.799C423.851 381.799 424.226 381.754 424.883 381.673C425.533 381.6 426.454 381.498 427.538 381.426C428.621 381.351 429.868 381.301 431.155 381.359C431.478 381.37 431.798 381.406 432.124 381.425C432.446 381.455 432.764 381.507 433.09 381.539C433.392 381.591 433.671 381.652 433.976 381.698L434.972 381.951C435.354 382.045 435.735 382.152 436.12 382.232C436.506 382.306 436.892 382.383 437.278 382.434C438.048 382.545 438.81 382.609 439.546 382.634C441.017 382.688 442.374 382.596 443.513 382.45C444.652 382.301 445.576 382.102 446.209 381.936C446.842 381.772 447.187 381.641 447.187 381.641" fill="#b2e3ff" fill-rule="nonzero" opacity="1" stroke="none"/>
<path d="M429.619 375.327C429.619 375.327 430.042 375.317 430.783 375.301C431.517 375.282 432.553 375.26 433.774 375.208C434.994 375.159 436.398 375.086 437.858 374.948C438.589 374.879 439.331 374.789 440.072 374.684C440.809 374.571 441.54 374.438 442.248 374.276L443.502 374.036C443.969 373.972 444.463 373.919 444.927 373.878C445.827 373.822 446.709 373.825 447.545 373.881C449.217 373.993 450.694 374.292 451.885 374.623C453.079 374.959 453.996 375.325 454.607 375.606C455.22 375.887 455.529 376.083 455.529 376.083C455.529 376.083 455.116 376.028 454.39 375.931C453.672 375.841 452.657 375.715 451.457 375.615C450.259 375.513 448.876 375.431 447.443 375.456C447.084 375.459 446.727 375.487 446.363 375.497C446.003 375.519 445.647 375.563 445.282 375.587C444.944 375.631 444.63 375.684 444.288 375.723L443.168 375.95C442.737 376.034 442.307 376.131 441.875 376.201C441.442 376.265 441.007 376.332 440.575 376.374C439.714 376.464 438.862 376.509 438.045 376.515C436.407 376.531 434.906 376.405 433.649 376.23C432.393 376.051 431.379 375.829 430.688 375.647C429.993 375.466 429.619 375.327 429.619 375.327" fill="#b2e3ff" fill-rule="nonzero" opacity="1" stroke="none"/>
</g>
<path d="M441.569 343.352C436.759 343.352 432.677 347.183 430.975 352.571C427.029 354.02 424.194 357.716 424.194 362.134C424.194 367.804 428.821 372.384 434.538 372.384C435.59 372.384 436.55 372.079 437.506 371.79C438.772 372.407 440.134 372.79 441.569 372.79C443.7 372.79 445.672 371.997 447.381 370.696C449.042 371.73 450.918 372.477 453.038 372.477C458.928 372.477 463.694 367.85 463.694 362.134C463.694 356.418 458.928 351.759 453.038 351.759C452.65 351.759 452.321 351.938 451.944 351.977C450.13 346.918 446.193 343.352 441.569 343.352Z" fill="#ebebeb" fill-rule="nonzero" opacity="1" stroke="#ebebeb" stroke-linecap="butt" stroke-linejoin="round" stroke-width="0.18516"/>
</g>
<g id="sleet">
<g opacity="1">
<path d="M506.973 364.548L506.973 351.554C506.973 349.085 504.958 347.064 502.497 347.064C500.035 347.064 498.021 349.085 498.021 351.554L498.021 364.505C496.642 365.737 495.756 367.513 495.756 369.513C495.756 373.233 498.762 376.248 502.47 376.248C506.178 376.248 509.184 373.233 509.184 369.513C509.184 367.54 508.322 365.78 506.973 364.548Z" fill="#ebebeb" fill-rule="nonzero" opacity="1" stroke="#ebebeb" stroke-linecap="round" stroke-linejoin="round" stroke-width="1"/>
<path d="M502.47 354.921L502.47 369.513" fill="none" opacity="1" stroke="#30b3ff" stroke-linecap="butt" stroke-linejoin="round" stroke-width="1"/>
<path d="M502.47 366.146C500.616 366.146 499.113 367.654 499.113 369.513C499.113 371.373 500.616 372.881 502.47 372.881C504.324 372.881 505.827 371.373 505.827 369.513C505.827 367.654 504.324 366.146 502.47 366.146Z" fill="#30b3ff" fill-rule="nonzero" opacity="1" stroke="none"/>
</g>
<g opacity="1">
<path d="M486.61 369.284L488.058 367.328L490.404 368.073L490.407 370.489L488.062 371.237L486.61 369.284Z" fill="#efe9f4" fill-rule="nonzero" opacity="1" stroke="#efe9f4" stroke-linecap="butt" stroke-linejoin="round" stroke-width="0.18516"/>
<path d="M494.337 360.083L493.416 361.307L491.943 360.828L491.953 359.308L493.432 358.847L494.337 360.083Z" fill="#efe9f4" fill-rule="nonzero" opacity="1" stroke="#efe9f4" stroke-linecap="butt" stroke-linejoin="round" stroke-width="0.18516"/>
<path d="M492.327 352.985L490.854 354.78L488.656 353.963L488.769 351.662L491.038 351.057L492.327 352.985Z" fill="#efe9f4" fill-rule="nonzero" opacity="1" stroke="#efe9f4" stroke-linecap="butt" stroke-linejoin="round" stroke-width="0.18516"/>
</g>
<text fill="#efe9f4" font-family="Helvetica" font-size="7.69538" opacity="1" stroke="none" text-anchor="start" transform="matrix(1 0 0 1 490.84 387.89)" x="0" y="0">
<tspan textLength="16.255" x="1.5" y="7">sleet</tspan>
</text>
</g>
</svg>
