<?xml version="1.0" encoding="UTF-8" standalone="no"?>
<!DOCTYPE svg PUBLIC "-//W3C//DTD SVG 1.1//EN" "http://www.w3.org/Graphics/SVG/1.1/DTD/svg11.dtd">
<!-- Created with Vectornator (http://vectornator.io/) -->
<svg height="100%" stroke-miterlimit="10" style="fill-rule:nonzero;clip-rule:evenodd;stroke-linecap:round;stroke-linejoin:round;" version="1.1" viewBox="276.282 189.376 39.6852 29.6227" width="100%" xml:space="preserve" xmlns="http://www.w3.org/2000/svg" xmlns:xlink="http://www.w3.org/1999/xlink">
<defs/>
<g id="cloudy">
<path d="M293.749 189.469C288.94 189.469 284.858 193.3 283.155 198.688C279.21 200.136 276.374 203.832 276.374 208.25C276.374 213.921 281.002 218.5 286.718 218.5C287.77 218.5 288.73 218.196 289.687 217.906C290.952 218.524 292.315 218.906 293.749 218.906C295.881 218.906 297.852 218.113 299.562 216.813C301.222 217.847 303.098 218.594 305.218 218.594C311.109 218.594 315.874 213.966 315.874 208.25C315.874 202.534 311.109 197.875 305.218 197.875C304.83 197.875 304.501 198.055 304.124 198.094C302.311 193.035 298.373 189.469 293.749 189.469Z" fill="#ebebeb" fill-rule="nonzero" opacity="1" stroke="#ebebeb" stroke-linecap="butt" stroke-linejoin="round" stroke-width="0.18516"/>
</g>
</svg>
