<?xml version="1.0" encoding="UTF-8" standalone="no"?>
<!DOCTYPE svg PUBLIC "-//W3C//DTD SVG 1.1//EN" "http://www.w3.org/Graphics/SVG/1.1/DTD/svg11.dtd">
<!-- Created with Vectornator (http://vectornator.io/) -->
<svg height="100%" stroke-miterlimit="10" style="fill-rule:nonzero;clip-rule:evenodd;stroke-linecap:round;stroke-linejoin:round;" version="1.1" viewBox="323.701 334.903 44.3426 16.1339" width="100%" xml:space="preserve" xmlns="http://www.w3.org/2000/svg" xmlns:xlink="http://www.w3.org/1999/xlink">
<defs/>
<g id="fog">
<g opacity="1">
<path d="M364.729 348.232C364.729 348.232 364.378 348.213 363.764 348.179C363.155 348.143 362.294 348.097 361.283 348.017C360.272 347.94 359.108 347.835 357.901 347.664C357.297 347.578 356.687 347.471 356.077 347.348C355.469 347.219 354.869 347.069 354.289 346.891L353.259 346.622C352.874 346.547 352.467 346.483 352.084 346.431C351.339 346.354 350.605 346.337 349.908 346.374C348.512 346.447 347.27 346.712 346.263 347.015C345.254 347.324 344.474 347.668 343.951 347.935C343.427 348.201 343.161 348.39 343.161 348.39C343.161 348.39 343.508 348.345 344.115 348.264C344.716 348.191 345.567 348.089 346.569 348.017C347.569 347.942 348.722 347.892 349.912 347.95C350.211 347.961 350.506 347.997 350.808 348.016C351.105 348.046 351.399 348.098 351.701 348.13C351.979 348.182 352.238 348.243 352.519 348.289L353.439 348.542C353.793 348.636 354.145 348.743 354.501 348.823C354.857 348.897 355.215 348.974 355.571 349.025C356.283 349.136 356.987 349.2 357.667 349.225C359.026 349.279 360.281 349.187 361.333 349.041C362.387 348.892 363.241 348.693 363.825 348.527C364.411 348.363 364.729 348.232 364.729 348.232" fill="#ebebeb" fill-rule="nonzero" opacity="1" stroke="none"/>
<path d="M349.79 350.028C349.79 350.028 349.439 350.009 348.824 349.975C348.215 349.939 347.355 349.893 346.343 349.813C345.332 349.736 344.168 349.631 342.961 349.46C342.358 349.374 341.747 349.267 341.137 349.144C340.529 349.015 339.93 348.865 339.349 348.687L338.319 348.418C337.934 348.343 337.528 348.279 337.144 348.227C336.399 348.15 335.665 348.133 334.968 348.17C333.572 348.243 332.331 348.508 331.324 348.811C330.315 349.12 329.535 349.464 329.011 349.731C328.488 349.997 328.221 350.186 328.221 350.186C328.221 350.186 328.568 350.141 329.176 350.06C329.777 349.987 330.628 349.885 331.629 349.813C332.63 349.738 333.783 349.688 334.972 349.746C335.271 349.757 335.566 349.793 335.868 349.812C336.166 349.842 336.459 349.894 336.761 349.926C337.04 349.978 337.298 350.039 337.579 350.085L338.5 350.338C338.853 350.432 339.205 350.539 339.561 350.619C339.918 350.693 340.275 350.77 340.631 350.821C341.344 350.932 342.048 350.996 342.727 351.021C344.087 351.075 345.342 350.983 346.394 350.837C347.447 350.688 348.301 350.489 348.886 350.323C349.471 350.159 349.79 350.028 349.79 350.028" fill="#ebebeb" fill-rule="nonzero" opacity="1" stroke="none"/>
<path d="M333.552 343.715C333.552 343.715 333.944 343.705 334.628 343.689C335.307 343.67 336.265 343.648 337.393 343.596C338.521 343.547 339.819 343.474 341.168 343.336C341.843 343.267 342.529 343.177 343.214 343.072C343.895 342.959 344.571 342.826 345.225 342.664L346.384 342.424C346.816 342.36 347.272 342.307 347.701 342.266C348.533 342.21 349.348 342.213 350.121 342.269C351.666 342.381 353.031 342.68 354.132 343.011C355.235 343.347 356.083 343.713 356.648 343.994C357.215 344.275 357.5 344.471 357.5 344.471C357.5 344.471 357.118 344.416 356.447 344.319C355.784 344.229 354.846 344.103 353.736 344.003C352.629 343.901 351.351 343.819 350.027 343.844C349.695 343.847 349.365 343.875 349.028 343.885C348.696 343.907 348.366 343.951 348.029 343.975C347.717 344.019 347.426 344.072 347.111 344.111L346.076 344.338C345.677 344.422 345.279 344.519 344.88 344.589C344.48 344.653 344.078 344.72 343.679 344.762C342.883 344.852 342.096 344.897 341.34 344.903C339.826 344.919 338.439 344.793 337.277 344.618C336.117 344.439 335.18 344.217 334.541 344.035C333.898 343.854 333.552 343.715 333.552 343.715" fill="#ebebeb" fill-rule="nonzero" opacity="1" stroke="none"/>
</g>
<g opacity="1">
<path d="M368.043 340.453C368.043 340.453 367.693 340.434 367.078 340.4C366.469 340.364 365.609 340.318 364.597 340.238C363.586 340.161 362.422 340.056 361.215 339.885C360.612 339.799 360.001 339.692 359.391 339.569C358.783 339.44 358.184 339.29 357.603 339.112L356.573 338.843C356.188 338.768 355.782 338.704 355.398 338.652C354.653 338.575 353.919 338.558 353.222 338.595C351.826 338.668 350.585 338.933 349.577 339.236C348.569 339.545 347.788 339.889 347.265 340.156C346.742 340.422 346.475 340.611 346.475 340.611C346.475 340.611 346.822 340.566 347.43 340.485C348.03 340.412 348.881 340.31 349.883 340.238C350.884 340.163 352.037 340.113 353.226 340.171C353.525 340.182 353.82 340.218 354.122 340.237C354.42 340.267 354.713 340.319 355.015 340.351C355.294 340.403 355.552 340.464 355.833 340.51L356.754 340.763C357.107 340.857 357.459 340.964 357.815 341.044C358.171 341.118 358.529 341.195 358.885 341.246C359.598 341.357 360.302 341.421 360.981 341.446C362.341 341.5 363.595 341.408 364.648 341.262C365.701 341.113 366.555 340.914 367.139 340.748C367.725 340.584 368.043 340.453 368.043 340.453" fill="#ebebeb" fill-rule="nonzero" opacity="1" stroke="none"/>
<path d="M345.269 340.453C345.269 340.453 344.918 340.434 344.304 340.4C343.695 340.364 342.834 340.318 341.823 340.238C340.812 340.161 339.648 340.056 338.441 339.885C337.837 339.799 337.227 339.692 336.616 339.569C336.009 339.44 335.409 339.29 334.829 339.112L333.798 338.843C333.414 338.768 333.007 338.704 332.624 338.652C331.879 338.575 331.145 338.558 330.448 338.595C329.051 338.668 327.81 338.933 326.803 339.236C325.794 339.545 325.014 339.889 324.491 340.156C323.967 340.422 323.701 340.611 323.701 340.611C323.701 340.611 324.047 340.566 324.655 340.485C325.256 340.412 326.107 340.31 327.109 340.238C328.109 340.163 329.262 340.113 330.452 340.171C330.751 340.182 331.046 340.218 331.347 340.237C331.645 340.267 331.939 340.319 332.241 340.351C332.519 340.403 332.778 340.464 333.059 340.51L333.979 340.763C334.333 340.857 334.685 340.964 335.041 341.044C335.397 341.118 335.755 341.195 336.111 341.246C336.823 341.357 337.527 341.421 338.207 341.446C339.566 341.5 340.821 341.408 341.873 341.262C342.927 341.113 343.78 340.914 344.365 340.748C344.951 340.584 345.269 340.453 345.269 340.453" fill="#ebebeb" fill-rule="nonzero" opacity="1" stroke="none"/>
<path d="M333.898 336.392C333.898 336.392 334.289 336.382 334.974 336.366C335.652 336.347 336.61 336.325 337.739 336.273C338.866 336.224 340.164 336.151 341.514 336.013C342.189 335.944 342.875 335.854 343.56 335.749C344.241 335.636 344.916 335.503 345.571 335.341L346.73 335.101C347.162 335.037 347.618 334.984 348.047 334.943C348.878 334.887 349.694 334.89 350.466 334.946C352.012 335.058 353.377 335.357 354.478 335.688C355.581 336.024 356.429 336.39 356.994 336.671C357.561 336.952 357.846 337.148 357.846 337.148C357.846 337.148 357.464 337.093 356.793 336.996C356.13 336.906 355.191 336.78 354.082 336.68C352.975 336.578 351.696 336.496 350.373 336.521C350.04 336.524 349.711 336.552 349.374 336.562C349.041 336.584 348.712 336.628 348.375 336.652C348.062 336.696 347.772 336.749 347.456 336.788L346.421 337.015C346.022 337.099 345.625 337.196 345.226 337.266C344.826 337.33 344.424 337.397 344.025 337.439C343.229 337.529 342.441 337.574 341.686 337.58C340.172 337.596 338.785 337.47 337.623 337.295C336.462 337.116 335.526 336.894 334.886 336.712C334.244 336.531 333.898 336.392 333.898 336.392" fill="#ebebeb" fill-rule="nonzero" opacity="1" stroke="none"/>
</g>
</g>
</svg>
