<?xml version="1.0" encoding="UTF-8" standalone="no"?>
<!DOCTYPE svg PUBLIC "-//W3C//DTD SVG 1.1//EN" "http://www.w3.org/Graphics/SVG/1.1/DTD/svg11.dtd">
<!-- Created with Vectornator (http://vectornator.io/) -->
<svg height="100%" stroke-miterlimit="10" style="fill-rule:nonzero;clip-rule:evenodd;stroke-linecap:round;stroke-linejoin:round;" version="1.1" viewBox="266.938 321.972 39.6852 39.7357" width="100%" xml:space="preserve" xmlns="http://www.w3.org/2000/svg" xmlns:xlink="http://www.w3.org/1999/xlink">
<defs/>
<g id="hail">
<g opacity="1">
<path d="M277.183 353.822L279.221 355.28L278.464 357.67L275.958 357.689L275.166 355.311L277.183 353.822Z" fill="#efe9f4" fill-rule="nonzero" opacity="1" stroke="#efe9f4" stroke-linecap="butt" stroke-linejoin="round" stroke-width="0.18516"/>
<path d="M286.781 361.615L285.504 360.688L285.992 359.187L287.57 359.187L288.057 360.688L286.781 361.615Z" fill="#efe9f4" fill-rule="nonzero" opacity="1" stroke="#efe9f4" stroke-linecap="butt" stroke-linejoin="round" stroke-width="0.18516"/>
<path d="M294.133 359.526L292.26 358.041L293.094 355.801L295.482 355.902L296.124 358.204L294.133 359.526Z" fill="#efe9f4" fill-rule="nonzero" opacity="1" stroke="#efe9f4" stroke-linecap="butt" stroke-linejoin="round" stroke-width="0.18516"/>
</g>
<path d="M284.406 322.064C279.596 322.064 275.514 325.895 273.812 331.283C269.866 332.732 267.031 336.428 267.031 340.846C267.031 346.516 271.658 351.096 277.375 351.096C278.427 351.096 279.387 350.791 280.343 350.502C281.609 351.119 282.971 351.502 284.406 351.502C286.537 351.502 288.508 350.709 290.218 349.408C291.879 350.443 293.755 351.189 295.875 351.189C301.765 351.189 306.531 346.562 306.531 340.846C306.531 335.13 301.765 330.471 295.875 330.471C295.487 330.471 295.158 330.65 294.781 330.689C292.967 325.63 289.03 322.064 284.406 322.064Z" fill="#ebebeb" fill-rule="nonzero" opacity="1" stroke="#ebebeb" stroke-linecap="butt" stroke-linejoin="round" stroke-width="0.18516"/>
</g>
</svg>
