<?xml version="1.0" encoding="UTF-8" standalone="no"?>
<!DOCTYPE svg PUBLIC "-//W3C//DTD SVG 1.1//EN" "http://www.w3.org/Graphics/SVG/1.1/DTD/svg11.dtd">
<!-- Created with Vectornator (http://vectornator.io/) -->
<svg height="100%" stroke-miterlimit="10" style="fill-rule:nonzero;clip-rule:evenodd;stroke-linecap:round;stroke-linejoin:round;" version="1.1" viewBox="517.014 189.118 40.8125 30.8961" width="100%" xml:space="preserve" xmlns="http://www.w3.org/2000/svg" xmlns:xlink="http://www.w3.org/1999/xlink">
<defs/>
<g id="partly-cloudy-day">
<path d="M557.827 199.026C557.827 204.499 553.374 208.936 547.88 208.936C542.388 208.937 537.934 204.501 537.934 199.028C537.933 193.555 542.386 189.118 547.879 189.118C553.373 189.118 557.826 193.554 557.827 199.026" fill="#fddd19" fill-rule="nonzero" opacity="1" stroke="none"/>
<path d="M534.482 190.484C529.672 190.484 525.59 194.315 523.888 199.703C519.942 201.151 517.107 204.847 517.107 209.265C517.107 214.936 521.734 219.515 527.45 219.515C528.503 219.515 529.462 219.211 530.419 218.922C531.685 219.539 533.047 219.921 534.482 219.922C536.613 219.922 538.584 219.129 540.294 217.828C541.954 218.862 543.831 219.609 545.95 219.609C551.841 219.609 556.607 214.981 556.607 209.265C556.607 203.549 551.841 198.89 545.95 198.89C545.563 198.89 545.234 199.07 544.857 199.109C543.043 194.05 539.106 190.484 534.482 190.484Z" fill="#ebebeb" fill-rule="nonzero" opacity="1" stroke="#ebebeb" stroke-linecap="butt" stroke-linejoin="round" stroke-width="0.18516"/>
</g>
</svg>
