<?xml version="1.0" encoding="UTF-8" standalone="no"?>
<!DOCTYPE svg PUBLIC "-//W3C//DTD SVG 1.1//EN" "http://www.w3.org/Graphics/SVG/1.1/DTD/svg11.dtd">
<!-- Created with Vectornator (http://vectornator.io/) -->
<svg height="100%" stroke-miterlimit="10" style="fill-rule:nonzero;clip-rule:evenodd;stroke-linecap:round;stroke-linejoin:round;" version="1.1" viewBox="441.56 187.437 41.7927 33.3803" width="100%" xml:space="preserve" xmlns="http://www.w3.org/2000/svg" xmlns:xlink="http://www.w3.org/1999/xlink">
<defs/>
<g id="partly-cloudy-night">
<path d="M483.353 200.828C481.675 203.912 478.415 206.006 474.66 206.006C469.202 206.006 464.784 201.587 464.784 196.13C464.784 192.374 466.877 189.114 469.962 187.437C469.21 188.835 468.779 190.433 468.779 192.135C468.779 197.592 473.198 202.011 478.655 202.011C480.357 202.011 481.955 201.579 483.353 200.828" fill="#fddd19" fill-rule="nonzero" opacity="1" stroke="none"/>
<path d="M459.028 191.287C454.218 191.287 450.136 195.118 448.434 200.506C444.488 201.955 441.653 205.651 441.653 210.068C441.653 215.739 446.28 220.318 451.997 220.318C453.049 220.318 454.009 220.014 454.965 219.725C456.231 220.342 457.593 220.725 459.028 220.725C461.159 220.725 463.131 219.932 464.84 218.631C466.501 219.665 468.377 220.412 470.497 220.412C476.387 220.412 481.153 215.784 481.153 210.068C481.153 204.353 476.387 199.693 470.497 199.693C470.109 199.693 469.78 199.873 469.403 199.912C467.589 194.853 463.652 191.287 459.028 191.287Z" fill="#ebebeb" fill-rule="nonzero" opacity="1" stroke="#ebebeb" stroke-linecap="butt" stroke-linejoin="round" stroke-width="0.18516"/>
</g>
</svg>
