<?xml version="1.0" encoding="UTF-8" standalone="no"?>
<!DOCTYPE svg PUBLIC "-//W3C//DTD SVG 1.1//EN" "http://www.w3.org/Graphics/SVG/1.1/DTD/svg11.dtd">
<!-- Created with Vectornator (http://vectornator.io/) -->
<svg height="100%" stroke-miterlimit="10" style="fill-rule:nonzero;clip-rule:evenodd;stroke-linecap:round;stroke-linejoin:round;" version="1.1" viewBox="83.0563 321.507 39.6852 40.3025" width="100%" xml:space="preserve" xmlns="http://www.w3.org/2000/svg" xmlns:xlink="http://www.w3.org/1999/xlink">
<defs/>
<g id="rain-snow">
<g opacity="1">
<path d="M96.6858 357.665C96.6914 358.17 96.2922 358.584 95.7937 358.589C95.2953 358.595 94.8869 358.19 94.8813 357.685C94.8756 357.18 95.2749 356.767 95.7733 356.761C96.2718 356.755 96.6802 357.16 96.6858 357.665" fill="#ffffff" fill-rule="nonzero" opacity="1" stroke="none"/>
<path d="M105.757 358.144C105.762 358.646 105.358 359.058 104.854 359.063C104.35 359.069 103.936 358.667 103.931 358.164C103.925 357.662 104.329 357.251 104.834 357.245C105.338 357.239 105.751 357.642 105.757 358.144" fill="#ffffff" fill-rule="nonzero" opacity="1" stroke="none"/>
<path d="M103.131 353.47C103.138 354.144 102.58 354.696 101.884 354.704C101.187 354.712 100.616 354.172 100.609 353.498C100.601 352.825 101.16 352.273 101.856 352.265C102.553 352.257 103.123 352.797 103.131 353.47" fill="#ffffff" fill-rule="nonzero" opacity="1" stroke="none"/>
</g>
<g opacity="1">
<path d="M94.1983 354.972C93.5623 355.674 92.5793 355.818 92.0013 355.295C91.4233 354.771 91.4703 353.778 92.1053 353.077C92.5253 352.614 94.0673 352.02 94.8733 351.754C95.2263 351.637 95.2892 351.77 95.2072 352.133C95.0212 352.961 94.6173 354.509 94.1983 354.972" fill="#30b3ff" fill-rule="nonzero" opacity="1" stroke="none"/>
<path d="M111.125 357.332C110.489 358.034 109.506 358.178 108.928 357.655C108.35 357.131 108.397 356.138 109.032 355.437C109.452 354.974 110.964 354.46 111.77 354.194C112.123 354.077 112.194 354.173 112.112 354.536C111.926 355.364 111.544 356.869 111.125 357.332" fill="#30b3ff" fill-rule="nonzero" opacity="1" stroke="none"/>
<path d="M100.173 361.262C99.6279 361.864 98.7839 361.988 98.2879 361.539C97.7919 361.09 97.8329 360.238 98.3779 359.636C98.7379 359.239 100.037 358.818 100.729 358.589C101.031 358.489 101.071 358.578 101.001 358.889C100.842 359.599 100.533 360.865 100.173 361.262" fill="#30b3ff" fill-rule="nonzero" opacity="1" stroke="none"/>
</g>
<path d="M100.524 321.599C95.7143 321.599 91.6324 325.43 89.9301 330.818C85.9844 332.266 83.1489 335.962 83.1489 340.38C83.1489 346.051 87.7763 350.63 93.4926 350.63C94.5447 350.63 95.5047 350.326 96.4614 350.037C97.7269 350.654 99.0895 351.036 100.524 351.037C102.655 351.037 104.627 350.244 106.336 348.943C107.997 349.977 109.873 350.724 111.993 350.724C117.883 350.724 122.649 346.096 122.649 340.38C122.649 334.664 117.883 330.005 111.993 330.005C111.605 330.005 111.276 330.185 110.899 330.224C109.085 325.165 105.148 321.599 100.524 321.599Z" fill="#ebebeb" fill-rule="nonzero" opacity="1" stroke="#ebebeb" stroke-linecap="butt" stroke-linejoin="round" stroke-width="0.18516"/>
</g>
</svg>
