<?xml version="1.0" encoding="UTF-8" standalone="no"?>
<!DOCTYPE svg PUBLIC "-//W3C//DTD SVG 1.1//EN" "http://www.w3.org/Graphics/SVG/1.1/DTD/svg11.dtd">
<!-- Created with Vectornator (http://vectornator.io/) -->
<svg height="100%" stroke-miterlimit="10" style="fill-rule:nonzero;clip-rule:evenodd;stroke-linecap:round;stroke-linejoin:round;" version="1.1" viewBox="86.3449 183.907 39.6852 40.1028" width="100%" xml:space="preserve" xmlns="http://www.w3.org/2000/svg" xmlns:xlink="http://www.w3.org/1999/xlink">
<defs/>
<g id="rain">
<g opacity="1">
<path d="M94.938 220.329C94.302 221.031 93.319 221.175 92.741 220.652C92.163 220.128 92.21 219.135 92.845 218.434C93.265 217.971 94.8069 217.377 95.6129 217.111C95.9659 216.994 96.0288 217.126 95.9468 217.489C95.7608 218.317 95.357 219.866 94.938 220.329" fill="#30b3ff" fill-rule="nonzero" opacity="1" stroke="none"/>
<path d="M111.864 218.709C111.228 219.411 110.245 219.555 109.667 219.032C109.089 218.508 109.136 217.515 109.771 216.814C110.191 216.351 111.703 215.837 112.509 215.571C112.862 215.454 112.934 215.55 112.852 215.913C112.666 216.741 112.283 218.246 111.864 218.709" fill="#30b3ff" fill-rule="nonzero" opacity="1" stroke="none"/>
<path d="M103.858 223.571C103.42 224.055 102.742 224.154 102.344 223.794C101.945 223.433 101.978 222.748 102.416 222.265C102.705 221.945 103.81 221.481 104.365 221.297C104.608 221.216 104.647 221.306 104.591 221.556C104.463 222.127 104.147 223.252 103.858 223.571" fill="#30b3ff" fill-rule="nonzero" opacity="1" stroke="none"/>
<path d="M102.631 218.584C102.086 219.186 101.242 219.31 100.746 218.861C100.25 218.412 100.291 217.56 100.836 216.958C101.196 216.561 102.494 216.14 103.186 215.911C103.488 215.811 103.528 215.9 103.458 216.211C103.299 216.921 102.991 218.187 102.631 218.584" fill="#30b3ff" fill-rule="nonzero" opacity="1" stroke="none"/>
</g>
<path d="M103.812 184C99.0029 184 94.921 187.831 93.2188 193.219C89.273 194.667 86.4375 198.363 86.4375 202.781C86.4375 208.452 91.0649 213.031 96.7812 213.031C97.8334 213.031 98.7933 212.727 99.75 212.438C101.016 213.055 102.378 213.437 103.812 213.438C105.944 213.438 107.915 212.644 109.625 211.344C111.285 212.378 113.162 213.125 115.281 213.125C121.172 213.125 125.938 208.497 125.938 202.781C125.938 197.065 121.172 192.406 115.281 192.406C114.893 192.406 114.565 192.586 114.188 192.625C112.374 187.566 108.436 184 103.812 184Z" fill="#ebebeb" fill-rule="nonzero" opacity="1" stroke="#ebebeb" stroke-linecap="butt" stroke-linejoin="round" stroke-width="0.18516"/>
</g>
</svg>
