<?xml version="1.0" encoding="UTF-8" standalone="no"?>
<!DOCTYPE svg PUBLIC "-//W3C//DTD SVG 1.1//EN" "http://www.w3.org/Graphics/SVG/1.1/DTD/svg11.dtd">
<!-- Created with Vectornator (http://vectornator.io/) -->
<svg height="100%" stroke-miterlimit="10" style="fill-rule:nonzero;clip-rule:evenodd;stroke-linecap:round;stroke-linejoin:round;" version="1.1" viewBox="141.372 320.265 40.9656 41.5439" width="100%" xml:space="preserve" xmlns="http://www.w3.org/2000/svg" xmlns:xlink="http://www.w3.org/1999/xlink">
<defs/>
<g id="rain-snow-showers-day">
<g opacity="1">
<path d="M155.002 357.665C155.007 358.17 154.608 358.584 154.11 358.589C153.611 358.595 153.203 358.19 153.197 357.685C153.192 357.18 153.591 356.767 154.089 356.761C154.588 356.755 154.996 357.16 155.002 357.665" fill="#ffffff" fill-rule="nonzero" opacity="1" stroke="none"/>
<path d="M164.073 358.144C164.078 358.646 163.674 359.058 163.17 359.063C162.666 359.069 162.252 358.667 162.247 358.164C162.241 357.662 162.645 357.251 163.15 357.245C163.654 357.239 164.067 357.642 164.073 358.144" fill="#ffffff" fill-rule="nonzero" opacity="1" stroke="none"/>
<path d="M161.447 353.47C161.454 354.144 160.896 354.696 160.2 354.704C159.503 354.712 158.932 354.172 158.925 353.498C158.917 352.825 159.476 352.273 160.172 352.265C160.869 352.257 161.439 352.797 161.447 353.47" fill="#ffffff" fill-rule="nonzero" opacity="1" stroke="none"/>
</g>
<path d="M182.338 330.142C182.338 335.597 177.916 340.019 172.461 340.019C167.007 340.019 162.585 335.597 162.585 330.142C162.585 324.687 167.007 320.265 172.461 320.265C177.916 320.265 182.338 324.687 182.338 330.142" fill="#fddd19" fill-rule="nonzero" opacity="1" stroke="none"/>
<g opacity="1">
<path d="M152.514 354.972C151.878 355.674 150.895 355.818 150.317 355.295C149.739 354.771 149.786 353.778 150.421 353.077C150.841 352.614 152.383 352.02 153.189 351.754C153.542 351.637 153.605 351.77 153.523 352.133C153.337 352.961 152.933 354.509 152.514 354.972" fill="#30b3ff" fill-rule="nonzero" opacity="1" stroke="none"/>
<path d="M169.441 357.332C168.805 358.034 167.822 358.178 167.244 357.655C166.666 357.131 166.713 356.138 167.348 355.437C167.768 354.974 169.279 354.46 170.085 354.194C170.438 354.077 170.51 354.173 170.428 354.536C170.242 355.364 169.86 356.869 169.441 357.332" fill="#30b3ff" fill-rule="nonzero" opacity="1" stroke="none"/>
<path d="M158.489 361.262C157.944 361.864 157.1 361.988 156.604 361.539C156.108 361.09 156.149 360.238 156.694 359.636C157.054 359.239 158.352 358.818 159.044 358.589C159.346 358.489 159.387 358.578 159.317 358.889C159.158 359.599 158.849 360.865 158.489 361.262" fill="#30b3ff" fill-rule="nonzero" opacity="1" stroke="none"/>
</g>
<path d="M158.84 321.599C154.03 321.599 149.948 325.43 148.246 330.818C144.3 332.266 141.465 335.962 141.465 340.38C141.465 346.051 146.092 350.63 151.808 350.63C152.861 350.63 153.821 350.326 154.777 350.037C156.043 350.654 157.405 351.036 158.84 351.037C160.971 351.037 162.942 350.244 164.652 348.943C166.313 349.977 168.189 350.724 170.308 350.724C176.199 350.724 180.965 346.096 180.965 340.38C180.965 334.664 176.199 330.005 170.308 330.005C169.921 330.005 169.592 330.185 169.215 330.224C167.401 325.165 163.464 321.599 158.84 321.599Z" fill="#ebebeb" fill-rule="nonzero" opacity="1" stroke="#ebebeb" stroke-linecap="butt" stroke-linejoin="round" stroke-width="0.18516"/>
</g>
</svg>
