<?xml version="1.0" encoding="UTF-8" standalone="no"?>
<!DOCTYPE svg PUBLIC "-//W3C//DTD SVG 1.1//EN" "http://www.w3.org/Graphics/SVG/1.1/DTD/svg11.dtd">
<!-- Created with Vectornator (http://vectornator.io/) -->
<svg height="100%" stroke-miterlimit="10" style="fill-rule:nonzero;clip-rule:evenodd;stroke-linecap:round;stroke-linejoin:round;" version="1.1" viewBox="204.796 317.749 41.7143 44.0601" width="100%" xml:space="preserve" xmlns="http://www.w3.org/2000/svg" xmlns:xlink="http://www.w3.org/1999/xlink">
<defs/>
<g id="rain-snow-showers-night">
<g opacity="1">
<path d="M218.425 357.665C218.431 358.17 218.032 358.584 217.533 358.589C217.035 358.595 216.626 358.19 216.621 357.685C216.615 357.18 217.014 356.767 217.513 356.761C218.011 356.755 218.42 357.16 218.425 357.665" fill="#ffffff" fill-rule="nonzero" opacity="1" stroke="none"/>
<path d="M227.496 358.144C227.502 358.646 227.098 359.058 226.593 359.063C226.089 359.069 225.676 358.667 225.67 358.164C225.664 357.662 226.069 357.251 226.573 357.245C227.077 357.239 227.49 357.642 227.496 358.144" fill="#ffffff" fill-rule="nonzero" opacity="1" stroke="none"/>
<path d="M224.87 353.47C224.878 354.144 224.319 354.696 223.623 354.704C222.927 354.712 222.356 354.172 222.348 353.498C222.34 352.825 222.899 352.273 223.596 352.265C224.292 352.257 224.863 352.797 224.87 353.47" fill="#ffffff" fill-rule="nonzero" opacity="1" stroke="none"/>
</g>
<path d="M246.51 331.14C244.832 334.224 241.572 336.318 237.817 336.318C232.359 336.318 227.941 331.899 227.941 326.442C227.941 322.686 230.034 319.426 233.119 317.749C232.367 319.147 231.936 320.745 231.936 322.447C231.936 327.904 236.355 332.323 241.812 332.323C243.514 332.323 245.112 331.891 246.51 331.14" fill="#fddd19" fill-rule="nonzero" opacity="1" stroke="none"/>
<g opacity="1">
<path d="M215.938 354.972C215.302 355.674 214.319 355.818 213.741 355.295C213.163 354.771 213.21 353.778 213.845 353.077C214.265 352.614 215.807 352.02 216.613 351.754C216.966 351.637 217.029 351.77 216.947 352.133C216.761 352.961 216.357 354.509 215.938 354.972" fill="#30b3ff" fill-rule="nonzero" opacity="1" stroke="none"/>
<path d="M232.864 357.332C232.228 358.034 231.245 358.178 230.667 357.655C230.089 357.131 230.136 356.138 230.771 355.437C231.191 354.974 232.703 354.46 233.509 354.194C233.862 354.077 233.933 354.173 233.851 354.536C233.665 355.364 233.283 356.869 232.864 357.332" fill="#30b3ff" fill-rule="nonzero" opacity="1" stroke="none"/>
<path d="M221.912 361.262C221.367 361.864 220.523 361.988 220.027 361.539C219.531 361.09 219.572 360.238 220.117 359.636C220.477 359.239 221.776 358.818 222.468 358.589C222.77 358.489 222.81 358.578 222.74 358.889C222.581 359.599 222.272 360.865 221.912 361.262" fill="#30b3ff" fill-rule="nonzero" opacity="1" stroke="none"/>
</g>
<path d="M222.263 321.599C217.454 321.599 213.372 325.43 211.669 330.818C207.724 332.266 204.888 335.962 204.888 340.38C204.888 346.051 209.516 350.63 215.232 350.63C216.284 350.63 217.244 350.326 218.201 350.037C219.466 350.654 220.829 351.036 222.263 351.037C224.395 351.037 226.366 350.244 228.076 348.943C229.736 349.977 231.612 350.724 233.732 350.724C239.623 350.724 244.388 346.096 244.388 340.38C244.388 334.664 239.623 330.005 233.732 330.005C233.344 330.005 233.015 330.185 232.638 330.224C230.825 325.165 226.887 321.599 222.263 321.599Z" fill="#ebebeb" fill-rule="nonzero" opacity="1" stroke="#ebebeb" stroke-linecap="butt" stroke-linejoin="round" stroke-width="0.18516"/>
</g>
</svg>
