<?xml version="1.0" encoding="UTF-8" standalone="no"?>
<!DOCTYPE svg PUBLIC "-//W3C//DTD SVG 1.1//EN" "http://www.w3.org/Graphics/SVG/1.1/DTD/svg11.dtd">
<!-- Created with Vectornator (http://vectornator.io/) -->
<svg height="100%" stroke-miterlimit="10" style="fill-rule:nonzero;clip-rule:evenodd;stroke-linecap:round;stroke-linejoin:round;" version="1.1" viewBox="214.847 185.645 40.8125 41.3442" width="100%" xml:space="preserve" xmlns="http://www.w3.org/2000/svg" xmlns:xlink="http://www.w3.org/1999/xlink">
<defs/>
<g id="showers-day">
<g opacity="1">
<path d="M223.44 223.308C222.804 224.01 221.821 224.154 221.243 223.631C220.665 223.107 220.712 222.114 221.347 221.413C221.767 220.95 223.309 220.356 224.115 220.09C224.468 219.973 224.531 220.106 224.449 220.469C224.263 221.297 223.859 222.845 223.44 223.308" fill="#30b3ff" fill-rule="nonzero" opacity="1" stroke="none"/>
<path d="M240.367 221.689C239.731 222.391 238.748 222.535 238.17 222.012C237.592 221.488 237.639 220.495 238.274 219.794C238.694 219.331 240.205 218.816 241.011 218.55C241.364 218.433 241.436 218.529 241.354 218.892C241.168 219.72 240.786 221.226 240.367 221.689" fill="#30b3ff" fill-rule="nonzero" opacity="1" stroke="none"/>
<path d="M232.36 226.55C231.922 227.034 231.244 227.133 230.846 226.773C230.447 226.412 230.48 225.727 230.918 225.244C231.207 224.924 232.312 224.461 232.867 224.277C233.11 224.196 233.149 224.286 233.093 224.536C232.965 225.107 232.649 226.231 232.36 226.55" fill="#30b3ff" fill-rule="nonzero" opacity="1" stroke="none"/>
<path d="M231.133 221.563C230.588 222.165 229.744 222.289 229.248 221.84C228.752 221.391 228.793 220.539 229.338 219.937C229.698 219.54 230.996 219.119 231.688 218.89C231.99 218.79 232.031 218.879 231.961 219.19C231.802 219.9 231.493 221.166 231.133 221.563" fill="#30b3ff" fill-rule="nonzero" opacity="1" stroke="none"/>
</g>
<path d="M255.66 195.522C255.66 200.977 251.238 205.399 245.783 205.399C240.329 205.399 235.907 200.977 235.907 195.522C235.907 190.067 240.329 185.645 245.783 185.645C251.238 185.645 255.66 190.067 255.66 195.522" fill="#fddd19" fill-rule="nonzero" opacity="1" stroke="none"/>
<path d="M232.315 186.979C227.505 186.979 223.423 190.81 221.721 196.198C217.775 197.647 214.94 201.343 214.94 205.761C214.94 211.431 219.567 216.011 225.283 216.011C226.335 216.011 227.295 215.706 228.252 215.417C229.518 216.034 230.88 216.417 232.315 216.417C234.446 216.417 236.417 215.624 238.127 214.323C239.787 215.357 241.664 216.104 243.783 216.104C249.674 216.104 254.44 211.477 254.44 205.761C254.44 200.045 249.674 195.386 243.783 195.386C243.395 195.386 243.067 195.565 242.69 195.604C240.876 190.545 236.939 186.979 232.315 186.979Z" fill="#ebebeb" fill-rule="nonzero" opacity="1" stroke="#ebebeb" stroke-linecap="butt" stroke-linejoin="round" stroke-width="0.18516"/>
</g>
</svg>
