<?xml version="1.0" encoding="UTF-8" standalone="no"?>
<!DOCTYPE svg PUBLIC "-//W3C//DTD SVG 1.1//EN" "http://www.w3.org/Graphics/SVG/1.1/DTD/svg11.dtd">
<!-- Created with Vectornator (http://vectornator.io/) -->
<svg height="100%" stroke-miterlimit="10" style="fill-rule:nonzero;clip-rule:evenodd;stroke-linecap:round;stroke-linejoin:round;" version="1.1" viewBox="146.677 183.129 41.7927 43.8605" width="100%" xml:space="preserve" xmlns="http://www.w3.org/2000/svg" xmlns:xlink="http://www.w3.org/1999/xlink">
<defs/>
<g id="showers-night">
<g opacity="1">
<path d="M155.27 223.308C154.634 224.01 153.651 224.154 153.073 223.631C152.495 223.107 152.542 222.114 153.177 221.413C153.597 220.95 155.139 220.356 155.945 220.09C156.298 219.973 156.361 220.106 156.279 220.469C156.093 221.297 155.689 222.845 155.27 223.308" fill="#30b3ff" fill-rule="nonzero" opacity="1" stroke="none"/>
<path d="M172.197 221.689C171.561 222.391 170.578 222.535 170 222.012C169.422 221.488 169.469 220.495 170.104 219.794C170.524 219.331 172.036 218.816 172.842 218.55C173.195 218.433 173.266 218.529 173.184 218.892C172.998 219.72 172.616 221.226 172.197 221.689" fill="#30b3ff" fill-rule="nonzero" opacity="1" stroke="none"/>
<path d="M164.19 226.55C163.752 227.034 163.074 227.133 162.676 226.773C162.277 226.412 162.31 225.727 162.748 225.244C163.037 224.924 164.143 224.461 164.698 224.277C164.941 224.196 164.98 224.286 164.924 224.536C164.796 225.107 164.479 226.231 164.19 226.55" fill="#30b3ff" fill-rule="nonzero" opacity="1" stroke="none"/>
<path d="M162.963 221.563C162.418 222.165 161.574 222.289 161.078 221.84C160.582 221.391 160.623 220.539 161.168 219.937C161.528 219.54 162.827 219.119 163.519 218.89C163.821 218.79 163.861 218.879 163.791 219.19C163.632 219.9 163.323 221.166 162.963 221.563" fill="#30b3ff" fill-rule="nonzero" opacity="1" stroke="none"/>
</g>
<path d="M188.47 196.52C186.792 199.604 183.532 201.698 179.777 201.698C174.319 201.698 169.901 197.279 169.901 191.822C169.901 188.066 171.994 184.806 175.079 183.129C174.327 184.527 173.896 186.125 173.896 187.827C173.896 193.284 178.315 197.703 183.772 197.703C185.474 197.703 187.072 197.271 188.47 196.52" fill="#fddd19" fill-rule="nonzero" opacity="1" stroke="none"/>
<path d="M164.145 186.979C159.335 186.979 155.254 190.81 153.551 196.198C149.606 197.647 146.77 201.343 146.77 205.761C146.77 211.431 151.397 216.011 157.114 216.011C158.166 216.011 159.126 215.706 160.083 215.417C161.348 216.034 162.711 216.417 164.145 216.417C166.277 216.417 168.248 215.624 169.958 214.323C171.618 215.357 173.494 216.104 175.614 216.104C181.505 216.104 186.27 211.477 186.27 205.761C186.27 200.045 181.505 195.386 175.614 195.386C175.226 195.386 174.897 195.565 174.52 195.604C172.707 190.545 168.769 186.979 164.145 186.979Z" fill="#ebebeb" fill-rule="nonzero" opacity="1" stroke="#ebebeb" stroke-linecap="butt" stroke-linejoin="round" stroke-width="0.18516"/>
</g>
</svg>
