<?xml version="1.0" encoding="UTF-8" standalone="no"?>
<!DOCTYPE svg PUBLIC "-//W3C//DTD SVG 1.1//EN" "http://www.w3.org/Graphics/SVG/1.1/DTD/svg11.dtd">
<!-- Created with Vectornator (http://vectornator.io/) -->
<svg height="100%" stroke-miterlimit="10" style="fill-rule:nonzero;clip-rule:evenodd;stroke-linecap:round;stroke-linejoin:round;" version="1.1" viewBox="517.304 252.705 41.9877 43.5608" width="100%" xml:space="preserve" xmlns="http://www.w3.org/2000/svg" xmlns:xlink="http://www.w3.org/1999/xlink">
<defs/>
<g id="snow-showers-night">
<path d="M559.291 266.096C557.613 269.18 554.353 271.274 550.598 271.274C545.14 271.274 540.722 266.855 540.722 261.398C540.722 257.642 542.815 254.382 545.9 252.705C545.148 254.103 544.717 255.701 544.717 257.403C544.717 262.86 549.136 267.279 554.593 267.279C556.295 267.279 557.893 266.847 559.291 266.096" fill="#fddd19" fill-rule="nonzero" opacity="1" stroke="none"/>
<g opacity="1">
<path d="M539.406 294.94C539.406 295.672 538.813 296.265 538.081 296.265C537.349 296.265 536.756 295.672 536.756 294.94C536.756 294.208 537.349 293.615 538.081 293.615C538.813 293.615 539.406 294.208 539.406 294.94" fill="#ffffff" fill-rule="nonzero" opacity="1" stroke="none"/>
<path d="M547.434 292.135C547.434 293.168 546.597 294.005 545.564 294.005C544.531 294.005 543.693 293.168 543.693 292.135C543.693 291.102 544.531 290.265 545.564 290.265C546.597 290.265 547.434 291.102 547.434 292.135" fill="#ffffff" fill-rule="nonzero" opacity="1" stroke="none"/>
<path d="M530.6 290.264C530.6 291.297 529.763 292.134 528.73 292.134C527.697 292.134 526.859 291.297 526.859 290.264C526.859 289.231 527.697 288.394 528.73 288.394C529.763 288.394 530.6 289.231 530.6 290.264" fill="#ffffff" fill-rule="nonzero" opacity="1" stroke="none"/>
</g>
<path d="M534.771 256.733C529.962 256.733 525.88 260.563 524.177 265.951C520.232 267.4 517.396 271.096 517.396 275.514C517.396 281.185 522.024 285.764 527.74 285.764C528.792 285.764 529.752 285.459 530.709 285.17C531.974 285.787 533.337 286.17 534.771 286.17C536.903 286.17 538.874 285.377 540.584 284.076C542.244 285.111 544.12 285.857 546.24 285.858C552.131 285.858 556.896 281.23 556.896 275.514C556.896 269.798 552.131 265.139 546.24 265.139C545.852 265.139 545.523 265.318 545.146 265.358C543.333 260.298 539.395 256.733 534.771 256.733Z" fill="#ebebeb" fill-rule="nonzero" opacity="1" stroke="#ebebeb" stroke-linecap="butt" stroke-linejoin="round" stroke-width="0.18516"/>
</g>
</svg>
