<?xml version="1.0" encoding="UTF-8" standalone="no"?>
<!DOCTYPE svg PUBLIC "-//W3C//DTD SVG 1.1//EN" "http://www.w3.org/Graphics/SVG/1.1/DTD/svg11.dtd">
<!-- Created with Vectornator (http://vectornator.io/) -->
<svg height="100%" stroke-miterlimit="10" style="fill-rule:nonzero;clip-rule:evenodd;stroke-linecap:round;stroke-linejoin:round;" version="1.1" viewBox="451.934 255.399 40.8125 40.8845" width="100%" xml:space="preserve" xmlns="http://www.w3.org/2000/svg" xmlns:xlink="http://www.w3.org/1999/xlink">
<defs/>
<g id="snow-showers-day">
<path d="M492.746 265.276C492.746 270.731 488.324 275.153 482.869 275.153C477.415 275.153 472.993 270.731 472.993 265.276C472.993 259.821 477.415 255.399 482.869 255.399C488.324 255.399 492.746 259.821 492.746 265.276" fill="#fddd19" fill-rule="nonzero" opacity="1" stroke="none"/>
<g opacity="1">
<path d="M474.037 294.958C474.037 295.69 473.444 296.283 472.712 296.283C471.98 296.283 471.387 295.69 471.387 294.958C471.387 294.226 471.98 293.633 472.712 293.633C473.444 293.633 474.037 294.226 474.037 294.958" fill="#ffffff" fill-rule="nonzero" opacity="1" stroke="none"/>
<path d="M482.064 292.152C482.064 293.185 481.227 294.022 480.194 294.022C479.161 294.022 478.323 293.185 478.323 292.152C478.323 291.119 479.161 290.282 480.194 290.282C481.227 290.282 482.064 291.119 482.064 292.152" fill="#ffffff" fill-rule="nonzero" opacity="1" stroke="none"/>
<path d="M465.23 290.282C465.23 291.315 464.393 292.152 463.36 292.152C462.327 292.152 461.489 291.315 461.489 290.282C461.489 289.249 462.327 288.412 463.36 288.412C464.393 288.412 465.23 289.249 465.23 290.282" fill="#ffffff" fill-rule="nonzero" opacity="1" stroke="none"/>
</g>
<path d="M469.401 256.715C464.592 256.715 460.51 260.546 458.808 265.934C454.862 267.382 452.026 271.078 452.026 275.496C452.026 281.167 456.654 285.746 462.37 285.746C463.422 285.746 464.382 285.442 465.339 285.152C466.604 285.77 467.967 286.152 469.401 286.152C471.533 286.152 473.504 285.359 475.214 284.059C476.874 285.093 478.75 285.84 480.87 285.84C486.761 285.84 491.526 281.212 491.526 275.496C491.526 269.78 486.761 265.121 480.87 265.121C480.482 265.121 480.154 265.301 479.776 265.34C477.963 260.281 474.025 256.715 469.401 256.715Z" fill="#ebebeb" fill-rule="nonzero" opacity="1" stroke="#ebebeb" stroke-linecap="butt" stroke-linejoin="round" stroke-width="0.18516"/>
</g>
</svg>
