<?xml version="1.0" encoding="UTF-8" standalone="no"?>
<!DOCTYPE svg PUBLIC "-//W3C//DTD SVG 1.1//EN" "http://www.w3.org/Graphics/SVG/1.1/DTD/svg11.dtd">
<!-- Created with Vectornator (http://vectornator.io/) -->
<svg height="100%" stroke-miterlimit="10" style="fill-rule:nonzero;clip-rule:evenodd;stroke-linecap:round;stroke-linejoin:round;" version="1.1" viewBox="387.479 256.64 39.6852 39.6431" width="100%" xml:space="preserve" xmlns="http://www.w3.org/2000/svg" xmlns:xlink="http://www.w3.org/1999/xlink">
<defs/>
<g id="snow">
<g opacity="1">
<path d="M408.553 294.958C408.553 295.69 407.96 296.283 407.228 296.283C406.496 296.283 405.903 295.69 405.903 294.958C405.903 294.226 406.496 293.633 407.228 293.633C407.96 293.633 408.553 294.226 408.553 294.958" fill="#ffffff" fill-rule="nonzero" opacity="1" stroke="none"/>
<path d="M416.58 292.152C416.58 293.185 415.743 294.022 414.71 294.022C413.677 294.022 412.839 293.185 412.839 292.152C412.839 291.119 413.677 290.282 414.71 290.282C415.743 290.282 416.58 291.119 416.58 292.152" fill="#ffffff" fill-rule="nonzero" opacity="1" stroke="none"/>
<path d="M399.746 290.282C399.746 291.315 398.909 292.152 397.876 292.152C396.843 292.152 396.005 291.315 396.005 290.282C396.005 289.249 396.843 288.412 397.876 288.412C398.909 288.412 399.746 289.249 399.746 290.282" fill="#ffffff" fill-rule="nonzero" opacity="1" stroke="none"/>
</g>
<path d="M404.947 256.733C400.137 256.733 396.056 260.563 394.353 265.951C390.408 267.4 387.572 271.096 387.572 275.514C387.572 281.185 392.199 285.764 397.916 285.764C398.968 285.764 399.928 285.459 400.884 285.17C402.15 285.787 403.513 286.17 404.947 286.17C407.079 286.17 409.05 285.377 410.759 284.076C412.42 285.111 414.296 285.857 416.416 285.858C422.307 285.858 427.072 281.23 427.072 275.514C427.072 269.798 422.307 265.139 416.416 265.139C416.028 265.139 415.699 265.318 415.322 265.358C413.509 260.298 409.571 256.733 404.947 256.733Z" fill="#efe9f4" fill-rule="nonzero" opacity="1" stroke="#efe9f4" stroke-linecap="butt" stroke-linejoin="round" stroke-width="0.18516"/>
<path d="M404.947 256.733C400.137 256.733 396.056 260.563 394.353 265.951C390.408 267.4 387.572 271.096 387.572 275.514C387.572 281.185 392.199 285.764 397.916 285.764C398.968 285.764 399.928 285.459 400.884 285.17C402.15 285.787 403.513 286.17 404.947 286.17C407.079 286.17 409.05 285.377 410.759 284.076C412.42 285.111 414.296 285.857 416.416 285.858C422.307 285.858 427.072 281.23 427.072 275.514C427.072 269.798 422.307 265.139 416.416 265.139C416.028 265.139 415.699 265.318 415.322 265.358C413.509 260.298 409.571 256.733 404.947 256.733Z" fill="#ebebeb" fill-rule="nonzero" opacity="1" stroke="#ebebeb" stroke-linecap="butt" stroke-linejoin="round" stroke-width="0.18516"/>
</g>
</svg>
