<?xml version="1.0" encoding="UTF-8" standalone="no"?>
<!DOCTYPE svg PUBLIC "-//W3C//DTD SVG 1.1//EN" "http://www.w3.org/Graphics/SVG/1.1/DTD/svg11.dtd">
<!-- Created with Vectornator (http://vectornator.io/) -->
<svg height="100%" stroke-miterlimit="10" style="fill-rule:nonzero;clip-rule:evenodd;stroke-linecap:round;stroke-linejoin:round;" version="1.1" viewBox="83.0563 252.882 41.7927 42.1773" width="100%" xml:space="preserve" xmlns="http://www.w3.org/2000/svg" xmlns:xlink="http://www.w3.org/1999/xlink">
<defs/>
<g id="thundr-showers-night">
<g opacity="1">
<path d="M113.335 289.356C112.699 290.058 111.716 290.202 111.138 289.679C110.56 289.155 110.607 288.162 111.242 287.461C111.662 286.998 113.174 286.483 113.98 286.217C114.333 286.1 114.404 286.196 114.322 286.559C114.136 287.387 113.754 288.893 113.335 289.356" fill="#b2e3ff" fill-rule="nonzero" opacity="1" stroke="none"/>
<path d="M105.329 294.217C104.891 294.701 104.213 294.8 103.815 294.44C103.416 294.079 103.449 293.394 103.887 292.911C104.176 292.591 105.281 292.128 105.836 291.944C106.079 291.863 106.118 291.953 106.062 292.203C105.934 292.774 105.618 293.898 105.329 294.217" fill="#b2e3ff" fill-rule="nonzero" opacity="1" stroke="none"/>
<path d="M104.102 289.23C103.557 289.832 102.713 289.956 102.217 289.507C101.721 289.058 101.762 288.206 102.307 287.604C102.667 287.207 103.965 286.786 104.657 286.557C104.959 286.457 104.999 286.546 104.929 286.857C104.77 287.567 104.462 288.833 104.102 289.23" fill="#b2e3ff" fill-rule="nonzero" opacity="1" stroke="none"/>
</g>
<path d="M96.6423 282.155L92.4023 288.142C91.9683 288.755 92.4063 289.603 93.1583 289.603C93.8823 289.603 94.3263 290.397 93.9463 291.014L91.6863 294.689C91.5403 294.926 91.8463 295.181 92.0533 294.995L99.2363 288.571C99.8093 288.059 99.5443 287.111 98.7883 286.971L98.7873 286.97C98.1503 286.852 97.8283 286.132 98.1653 285.579L99.6313 283.172C100.006 282.555 99.5623 281.764 98.8403 281.764L97.3983 281.764C97.0973 281.764 96.8163 281.91 96.6423 282.155" fill="#30b3ff" fill-rule="nonzero" opacity="1" stroke="none"/>
<path d="M124.849 266.273C123.171 269.357 119.911 271.451 116.156 271.451C110.698 271.451 106.28 267.032 106.28 261.575C106.28 257.819 108.373 254.559 111.458 252.882C110.706 254.28 110.275 255.878 110.275 257.58C110.275 263.037 114.694 267.456 120.151 267.456C121.853 267.456 123.451 267.024 124.849 266.273" fill="#fddd19" fill-rule="nonzero" opacity="1" stroke="none"/>
<path d="M100.524 256.733C95.7143 256.733 91.6324 260.563 89.9301 265.951C85.9844 267.4 83.1489 271.096 83.1489 275.514C83.1489 281.185 87.7763 285.764 93.4926 285.764C94.5447 285.764 95.5047 285.459 96.4614 285.17C97.7269 285.787 99.0895 286.17 100.524 286.17C102.655 286.17 104.627 285.377 106.336 284.076C107.997 285.111 109.873 285.857 111.993 285.858C117.883 285.858 122.649 281.23 122.649 275.514C122.649 269.798 117.883 265.139 111.993 265.139C111.605 265.139 111.276 265.318 110.899 265.358C109.085 260.298 105.148 256.733 100.524 256.733Z" fill="#ebebeb" fill-rule="nonzero" opacity="1" stroke="#ebebeb" stroke-linecap="butt" stroke-linejoin="round" stroke-width="0.18516"/>
</g>
</svg>
