<?xml version="1.0" encoding="UTF-8" standalone="no"?>
<!DOCTYPE svg PUBLIC "-//W3C//DTD SVG 1.1//EN" "http://www.w3.org/Graphics/SVG/1.1/DTD/svg11.dtd">
<!-- Created with Vectornator (http://vectornator.io/) -->
<svg height="100%" stroke-miterlimit="10" style="fill-rule:nonzero;clip-rule:evenodd;stroke-linecap:round;stroke-linejoin:round;" version="1.1" viewBox="328.451 256.64 39.6852 38.4196" width="100%" xml:space="preserve" xmlns="http://www.w3.org/2000/svg" xmlns:xlink="http://www.w3.org/1999/xlink">
<defs/>
<g id="thunder">
<path d="M342.037 282.155L337.797 288.142C337.363 288.755 337.801 289.603 338.553 289.603C339.277 289.603 339.721 290.397 339.341 291.014L337.081 294.689C336.935 294.926 337.241 295.181 337.448 294.995L344.631 288.571C345.204 288.059 344.939 287.111 344.183 286.971L344.182 286.97C343.545 286.852 343.223 286.132 343.56 285.579L345.026 283.172C345.401 282.555 344.957 281.764 344.235 281.764L342.793 281.764C342.492 281.764 342.211 281.91 342.037 282.155" fill="#30b3ff" fill-rule="nonzero" opacity="1" stroke="none"/>
<path d="M345.918 256.733C341.109 256.733 337.027 260.563 335.325 265.951C331.379 267.4 328.543 271.096 328.543 275.514C328.543 281.185 333.171 285.764 338.887 285.764C339.939 285.764 340.899 285.459 341.856 285.17C343.121 285.787 344.484 286.17 345.918 286.17C348.05 286.17 350.021 285.377 351.731 284.076C353.391 285.111 355.268 285.857 357.387 285.858C363.278 285.858 368.043 281.23 368.043 275.514C368.043 269.798 363.278 265.139 357.387 265.139C356.999 265.139 356.671 265.318 356.293 265.358C354.48 260.298 350.542 256.733 345.918 256.733Z" fill="#ebebeb" fill-rule="nonzero" opacity="1" stroke="#ebebeb" stroke-linecap="butt" stroke-linejoin="round" stroke-width="0.18516"/>
</g>
</svg>
