<?xml version="1.0" encoding="UTF-8" standalone="no"?>
<!DOCTYPE svg PUBLIC "-//W3C//DTD SVG 1.1//EN" "http://www.w3.org/Graphics/SVG/1.1/DTD/svg11.dtd">
<!-- Created with Vectornator (http://vectornator.io/) -->
<svg height="100%" stroke-miterlimit="10" style="fill-rule:nonzero;clip-rule:evenodd;stroke-linecap:round;stroke-linejoin:round;" version="1.1" viewBox="266.938 256.64 39.6852 38.4196" width="100%" xml:space="preserve" xmlns="http://www.w3.org/2000/svg" xmlns:xlink="http://www.w3.org/1999/xlink">
<defs/>
<g id="thunder-rain">
<g opacity="1">
<path d="M297.217 289.356C296.581 290.058 295.598 290.202 295.02 289.679C294.442 289.155 294.489 288.162 295.124 287.461C295.544 286.998 297.056 286.483 297.862 286.217C298.215 286.1 298.286 286.196 298.204 286.559C298.018 287.387 297.636 288.893 297.217 289.356" fill="#b2e3ff" fill-rule="nonzero" opacity="1" stroke="none"/>
<path d="M289.21 294.217C288.772 294.701 288.094 294.8 287.696 294.44C287.297 294.079 287.33 293.394 287.768 292.911C288.057 292.591 289.163 292.128 289.718 291.944C289.961 291.863 290 291.953 289.944 292.203C289.816 292.774 289.499 293.898 289.21 294.217" fill="#b2e3ff" fill-rule="nonzero" opacity="1" stroke="none"/>
<path d="M287.984 289.23C287.439 289.832 286.595 289.956 286.099 289.507C285.603 289.058 285.644 288.206 286.189 287.604C286.549 287.207 287.847 286.786 288.539 286.557C288.841 286.457 288.881 286.546 288.811 286.857C288.652 287.567 288.344 288.833 287.984 289.23" fill="#b2e3ff" fill-rule="nonzero" opacity="1" stroke="none"/>
</g>
<path d="M280.524 282.155L276.284 288.142C275.85 288.755 276.288 289.603 277.04 289.603C277.764 289.603 278.208 290.397 277.828 291.014L275.568 294.689C275.422 294.926 275.728 295.181 275.935 294.995L283.118 288.571C283.691 288.059 283.426 287.111 282.67 286.971L282.669 286.97C282.032 286.852 281.71 286.132 282.047 285.579L283.513 283.172C283.888 282.555 283.444 281.764 282.722 281.764L281.28 281.764C280.979 281.764 280.698 281.91 280.524 282.155" fill="#30b3ff" fill-rule="nonzero" opacity="1" stroke="none"/>
<path d="M284.406 256.733C279.596 256.733 275.514 260.563 273.812 265.951C269.866 267.4 267.031 271.096 267.031 275.514C267.031 281.185 271.658 285.764 277.375 285.764C278.427 285.764 279.387 285.459 280.343 285.17C281.609 285.787 282.971 286.17 284.406 286.17C286.537 286.17 288.508 285.377 290.218 284.076C291.879 285.111 293.755 285.857 295.875 285.858C301.765 285.858 306.531 281.23 306.531 275.514C306.531 269.798 301.765 265.139 295.875 265.139C295.487 265.139 295.158 265.318 294.781 265.358C292.967 260.298 289.03 256.733 284.406 256.733Z" fill="#ebebeb" fill-rule="nonzero" opacity="1" stroke="#ebebeb" stroke-linecap="butt" stroke-linejoin="round" stroke-width="0.18516"/>
</g>
</svg>
