<?xml version="1.0" encoding="UTF-8" standalone="no"?>
<!DOCTYPE svg PUBLIC "-//W3C//DTD SVG 1.1//EN" "http://www.w3.org/Graphics/SVG/1.1/DTD/svg11.dtd">
<!-- Created with Vectornator (http://vectornator.io/) -->
<svg height="100%" stroke-miterlimit="10" style="fill-rule:nonzero;clip-rule:evenodd;stroke-linecap:round;stroke-linejoin:round;" version="1.1" viewBox="182.245 255.399 40.8125 39.661" width="100%" xml:space="preserve" xmlns="http://www.w3.org/2000/svg" xmlns:xlink="http://www.w3.org/1999/xlink">
<defs/>
<g id="thunder-showers-day">
<g opacity="1">
<path d="M212.524 289.356C211.888 290.058 210.905 290.202 210.327 289.679C209.749 289.155 209.796 288.162 210.431 287.461C210.851 286.998 212.363 286.483 213.169 286.217C213.522 286.1 213.593 286.196 213.511 286.559C213.325 287.387 212.943 288.893 212.524 289.356" fill="#b2e3ff" fill-rule="nonzero" opacity="1" stroke="none"/>
<path d="M204.517 294.217C204.079 294.701 203.401 294.8 203.003 294.44C202.604 294.079 202.637 293.394 203.075 292.911C203.364 292.591 204.47 292.128 205.025 291.944C205.268 291.863 205.307 291.953 205.251 292.203C205.123 292.774 204.806 293.898 204.517 294.217" fill="#b2e3ff" fill-rule="nonzero" opacity="1" stroke="none"/>
<path d="M203.291 289.23C202.746 289.832 201.902 289.956 201.406 289.507C200.91 289.058 200.951 288.206 201.496 287.604C201.856 287.207 203.154 286.786 203.846 286.557C204.148 286.457 204.188 286.546 204.118 286.857C203.959 287.567 203.651 288.833 203.291 289.23" fill="#b2e3ff" fill-rule="nonzero" opacity="1" stroke="none"/>
</g>
<path d="M195.831 282.155L191.591 288.142C191.157 288.755 191.595 289.603 192.347 289.603C193.071 289.603 193.515 290.397 193.135 291.014L190.875 294.689C190.729 294.926 191.035 295.181 191.242 294.995L198.425 288.571C198.998 288.059 198.733 287.111 197.977 286.971L197.976 286.97C197.339 286.852 197.017 286.132 197.354 285.579L198.82 283.172C199.195 282.555 198.751 281.764 198.029 281.764L196.587 281.764C196.286 281.764 196.005 281.91 195.831 282.155" fill="#30b3ff" fill-rule="nonzero" opacity="1" stroke="none"/>
<path d="M223.058 265.276C223.058 270.731 218.636 275.153 213.181 275.153C207.727 275.153 203.305 270.731 203.305 265.276C203.305 259.821 207.727 255.399 213.181 255.399C218.636 255.399 223.058 259.821 223.058 265.276" fill="#fddd19" fill-rule="nonzero" opacity="1" stroke="none"/>
<path d="M199.713 256.733C194.903 256.733 190.821 260.563 189.119 265.951C185.173 267.4 182.338 271.096 182.338 275.514C182.338 281.185 186.965 285.764 192.682 285.764C193.734 285.764 194.694 285.459 195.65 285.17C196.916 285.787 198.278 286.17 199.713 286.17C201.844 286.17 203.815 285.377 205.525 284.076C207.186 285.111 209.062 285.857 211.182 285.858C217.072 285.858 221.838 281.23 221.838 275.514C221.838 269.798 217.072 265.139 211.182 265.139C210.794 265.139 210.465 265.318 210.088 265.358C208.274 260.298 204.337 256.733 199.713 256.733Z" fill="#ebebeb" fill-rule="nonzero" opacity="1" stroke="#ebebeb" stroke-linecap="butt" stroke-linejoin="round" stroke-width="0.18516"/>
</g>
</svg>
