<?xml version="1.0" encoding="UTF-8" standalone="no"?>
<!DOCTYPE svg PUBLIC "-//W3C//DTD SVG 1.1//EN" "http://www.w3.org/Graphics/SVG/1.1/DTD/svg11.dtd">
<!-- Created with Vectornator (http://vectornator.io/) -->
<svg height="100%" stroke-miterlimit="10" style="fill-rule:nonzero;clip-rule:evenodd;stroke-linecap:round;stroke-linejoin:round;" version="1.1" viewBox="386.543 322.735 39.9357 36.282" width="100%" xml:space="preserve" xmlns="http://www.w3.org/2000/svg" xmlns:xlink="http://www.w3.org/1999/xlink">
<defs/>
<g id="wind">
<path d="M404.261 322.827C399.451 322.827 395.37 326.658 393.667 332.046C389.722 333.495 386.886 337.191 386.886 341.609C386.886 347.279 391.513 351.859 397.23 351.859C398.282 351.859 399.242 351.554 400.198 351.265C401.464 351.882 402.827 352.265 404.261 352.265C406.393 352.265 408.364 351.472 410.073 350.171C411.734 351.205 413.61 351.952 415.73 351.952C421.621 351.952 426.386 347.325 426.386 341.609C426.386 335.893 421.621 331.234 415.73 331.234C415.342 331.234 415.013 331.413 414.636 331.452C412.823 326.393 408.885 322.827 404.261 322.827Z" fill="#ebebeb" fill-rule="nonzero" opacity="1" stroke="#ebebeb" stroke-linecap="butt" stroke-linejoin="round" stroke-width="0.18516"/>
<g opacity="1">
<path d="M426.043 356.212C426.043 356.212 425.663 356.193 424.999 356.159C424.34 356.123 423.409 356.077 422.314 355.997C421.22 355.92 419.961 355.815 418.655 355.644C418.002 355.558 417.341 355.451 416.681 355.328C416.024 355.199 415.375 355.049 414.747 354.871L413.632 354.602C413.216 354.527 412.776 354.463 412.361 354.411C411.555 354.334 410.761 354.317 410.007 354.354C408.496 354.427 407.153 354.692 406.063 354.995C404.972 355.304 404.128 355.648 403.561 355.915C402.995 356.181 402.707 356.37 402.707 356.37C402.707 356.37 403.082 356.325 403.739 356.244C404.39 356.171 405.31 356.069 406.394 355.997C407.477 355.922 408.724 355.872 410.011 355.93C410.335 355.941 410.654 355.977 410.98 355.996C411.302 356.026 411.62 356.078 411.947 356.11C412.248 356.162 412.528 356.223 412.832 356.269L413.828 356.522C414.21 356.616 414.591 356.723 414.976 356.803C415.362 356.877 415.749 356.954 416.134 357.005C416.905 357.116 417.667 357.18 418.402 357.205C419.873 357.259 421.23 357.167 422.369 357.021C423.509 356.872 424.432 356.673 425.065 356.507C425.699 356.343 426.043 356.212 426.043 356.212" fill="#b2e3ff" fill-rule="nonzero" opacity="1" stroke="none"/>
<path d="M409.879 358.008C409.879 358.008 409.499 357.989 408.834 357.955C408.176 357.919 407.245 357.873 406.15 357.793C405.056 357.716 403.797 357.611 402.491 357.44C401.838 357.354 401.177 357.247 400.517 357.124C399.86 356.995 399.211 356.845 398.583 356.667L397.468 356.398C397.052 356.323 396.612 356.259 396.197 356.207C395.391 356.13 394.597 356.113 393.842 356.15C392.332 356.223 390.989 356.488 389.899 356.791C388.808 357.1 387.964 357.444 387.397 357.711C386.831 357.977 386.543 358.166 386.543 358.166C386.543 358.166 386.918 358.121 387.575 358.04C388.225 357.967 389.146 357.865 390.23 357.793C391.313 357.718 392.56 357.668 393.847 357.726C394.17 357.737 394.49 357.773 394.816 357.792C395.138 357.822 395.456 357.874 395.782 357.906C396.084 357.958 396.363 358.019 396.668 358.065L397.664 358.318C398.046 358.412 398.427 358.519 398.812 358.599C399.198 358.673 399.585 358.75 399.97 358.801C400.741 358.912 401.502 358.976 402.238 359.001C403.709 359.055 405.066 358.963 406.205 358.817C407.345 358.668 408.268 358.469 408.901 358.303C409.535 358.139 409.879 358.008 409.879 358.008" fill="#b2e3ff" fill-rule="nonzero" opacity="1" stroke="none"/>
<path d="M392.311 351.695C392.311 351.695 392.734 351.685 393.475 351.669C394.209 351.65 395.245 351.628 396.467 351.576C397.686 351.527 399.091 351.454 400.55 351.316C401.281 351.247 402.023 351.157 402.764 351.052C403.501 350.939 404.232 350.806 404.94 350.644L406.194 350.404C406.662 350.34 407.155 350.287 407.62 350.246C408.519 350.19 409.402 350.193 410.237 350.249C411.909 350.361 413.386 350.66 414.578 350.991C415.771 351.327 416.688 351.693 417.3 351.974C417.913 352.255 418.222 352.451 418.222 352.451C418.222 352.451 417.808 352.396 417.082 352.299C416.364 352.209 415.349 352.083 414.149 351.983C412.951 351.881 411.568 351.799 410.136 351.824C409.776 351.827 409.42 351.855 409.055 351.865C408.695 351.887 408.339 351.931 407.974 351.955C407.636 351.999 407.322 352.052 406.98 352.091L405.86 352.318C405.429 352.402 404.999 352.499 404.567 352.569C404.134 352.633 403.699 352.7 403.268 352.742C402.406 352.832 401.554 352.877 400.737 352.883C399.099 352.899 397.598 352.773 396.341 352.598C395.085 352.419 394.072 352.197 393.38 352.015C392.685 351.834 392.311 351.695 392.311 351.695" fill="#b2e3ff" fill-rule="nonzero" opacity="1" stroke="none"/>
</g>
</g>
</svg>
